<svg width="848" height="810" viewBox="0 0 848 810" fill="none" xmlns="http://www.w3.org/2000/svg">
<path d="M431.783 291L431.783 292L432.19 292L432.481 291.716L431.783 291ZM92.4999 291L92.4999 292L92.4999 291ZM70.9999 291L70.9999 290L69.9999 290L69.9999 291L70.9999 291ZM70.9999 438L69.9999 438L70.9999 438ZM574 438L574.707 437.293L574.414 437L574 437L574 438ZM441.5 708.5C441.5 709.052 441.948 709.5 442.5 709.5L451.5 709.5C452.052 709.5 452.5 709.052 452.5 708.5C452.5 707.948 452.052 707.5 451.5 707.5L443.5 707.5L443.5 699.5C443.5 698.948 443.052 698.5 442.5 698.5C441.948 698.5 441.5 698.948 441.5 699.5L441.5 708.5ZM627.046 99.3224L431.085 290.284L432.481 291.716L628.442 100.755L627.046 99.3224ZM431.783 290L92.4999 290L92.4999 292L431.783 292L431.783 290ZM92.4999 290L70.9999 290L70.9999 292L92.4999 292L92.4999 290ZM69.9999 291L69.9999 438L71.9999 438L71.9999 291L69.9999 291ZM69.9999 438L69.9999 450L71.9999 450L71.9999 438L69.9999 438ZM70.9999 439L574 439L574 437L70.9999 437L70.9999 439ZM573.293 438.707L632.793 498.207L634.207 496.793L574.707 437.293L573.293 438.707ZM632.793 516.793L441.793 707.793L443.207 709.207L634.207 518.207L632.793 516.793Z" fill="url(#paint0_linear)"/>
<defs>
<linearGradient id="paint0_linear" x1="2.15088" y1="330.75" x2="791.474" y2="621.316" gradientUnits="userSpaceOnUse">
<stop stop-color="#FAFF00"/>
<stop offset="1" stop-color="#7FC13D"/>
</linearGradient>
</defs>
</svg>
