<svg width="1119" height="182" viewBox="0 0 1119 182" fill="none" xmlns="http://www.w3.org/2000/svg">
<path d="M1071.72 105.219H1101.23V178.445H1071.72V105.219Z" fill="url(#paint0_linear)"/>
<path d="M1094.76 17.7734L1101.23 3.55469H1072.79L1079.26 17.7734C1068.8 27.8865 1058.57 46.7193 1058.57 60.4297V67.5391C1058.57 83.2437 1071.3 88.8672 1087.01 88.8672C1102.71 88.8672 1115.45 83.2437 1115.45 67.5391C1115.45 66.7037 1115.45 61.6809 1115.45 60.4297C1115.45 46.7193 1105.22 27.8865 1094.76 17.7734Z" fill="#FFF4DD"/>
<path d="M1028 133.656H1057.5V178.445H1028V133.656Z" fill="url(#paint1_linear)"/>
<path d="M984.277 140.766H1013.78V178.445H984.277V140.766Z" fill="url(#paint2_linear)"/>
<path d="M940.555 154.984H970.059V178.445H940.555V154.984Z" fill="url(#paint3_linear)"/>
<path d="M1090.56 31.9922C1090.56 30.0293 1088.97 28.4375 1087.01 28.4375C1085.04 28.4375 1083.45 30.0293 1083.45 31.9922V36.0332C1079.35 37.5226 1076.4 41.4654 1076.4 46.0616C1076.4 51.9418 1081.19 56.7257 1087.07 56.7257C1089.03 56.7257 1090.62 58.3203 1090.62 60.2804C1090.62 62.2493 1089.03 63.8354 1087.07 63.8354C1087.06 63.8354 1087.05 63.8354 1087.04 63.8351C1085.5 63.8212 1083.92 62.8927 1082.46 61.1499C1081.19 59.6448 1078.95 59.4475 1077.45 60.7094C1075.94 61.9706 1075.75 64.2122 1077.01 65.7169C1078.89 67.9589 1081.1 69.5286 1083.45 70.3306V74.6484C1083.45 76.6113 1085.04 78.2031 1087.01 78.2031C1088.97 78.2031 1090.56 76.6113 1090.56 74.6484V70.3611C1094.66 68.9457 1097.73 65.0316 1097.73 60.2804C1097.73 54.4002 1092.95 49.6163 1087.07 49.6163C1085.11 49.6163 1083.51 48.0217 1083.51 46.0616C1083.51 44.1172 1085.09 42.523 1087.03 42.507C1088.29 42.5038 1089.65 43.1404 1090.91 44.3646C1092.32 45.73 1094.57 45.6937 1095.94 44.2825C1097.31 42.8717 1097.27 40.6215 1095.86 39.2562C1094.03 37.4913 1092.21 36.4988 1090.56 35.9635V31.9922H1090.56Z" fill="black"/>
<path d="M1104.46 5.02633C1104.96 3.9258 1104.87 2.64718 1104.22 1.63054C1103.56 0.613895 1102.44 0 1101.23 0H1072.79C1071.58 0 1070.45 0.61425 1069.8 1.63054C1069.15 2.64682 1069.05 3.9258 1069.55 5.02633L1075.01 17.0223C1064.89 27.7383 1055.02 46.1423 1055.02 60.4297V67.5391C1055.02 83.3524 1066.68 92.4219 1087.01 92.4219C1107.34 92.4219 1119 83.3524 1119 67.5391V60.4297C1119 46.1423 1109.12 27.7383 1099.01 17.022L1104.46 5.02633ZM1095.71 7.10938L1092.47 14.2188H1081.54L1078.31 7.10938H1095.71ZM1111.89 60.4297V67.5391C1111.89 81.1226 1100.58 85.3125 1087.01 85.3125C1073.43 85.3125 1062.12 81.1197 1062.12 67.5391V60.4297C1062.12 47.8301 1071.59 30.7061 1080.72 21.3281H1093.29C1102.42 30.7061 1111.89 47.8301 1111.89 60.4297Z" fill="black"/>
<path d="M1042.28 94.4054C1040.32 94.4054 1038.72 92.8108 1038.72 90.8507C1038.72 88.9063 1040.31 87.312 1042.24 87.296C1042.25 87.296 1042.26 87.2957 1042.27 87.2957C1043.54 87.2957 1044.87 87.938 1046.12 89.1537C1047.53 90.5194 1049.79 90.4824 1051.15 89.0716C1052.52 87.6607 1052.48 85.4106 1051.07 84.0453C1049.25 82.2804 1047.42 81.2879 1045.77 80.7525V76.7812C1045.77 74.8184 1044.18 73.2266 1042.22 73.2266C1040.26 73.2266 1038.66 74.8184 1038.66 76.7812V80.8222C1034.56 82.3116 1031.62 86.2545 1031.62 90.8507C1031.62 96.7309 1036.4 101.515 1042.28 101.515C1044.24 101.515 1045.83 103.109 1045.83 105.069C1045.83 107.038 1044.24 108.624 1042.28 108.624C1042.27 108.624 1042.26 108.624 1042.25 108.624C1040.71 108.61 1039.13 107.682 1037.67 105.939C1036.41 104.434 1034.16 104.237 1032.66 105.499C1031.15 106.76 1030.96 109.001 1032.22 110.506C1034.1 112.748 1036.31 114.318 1038.66 115.12V119.438C1038.66 121.4 1040.26 122.992 1042.22 122.992C1044.18 122.992 1045.77 121.4 1045.77 119.438V115.15C1049.87 113.735 1052.94 109.821 1052.94 105.069C1052.94 99.1893 1048.16 94.4054 1042.28 94.4054Z" fill="black"/>
<path d="M999.595 115.734C998.056 115.72 996.471 114.791 995.01 113.048C993.749 111.543 991.507 111.346 990.002 112.608C988.498 113.869 988.301 116.111 989.562 117.615C991.441 119.857 993.656 121.427 996.008 122.229V126.547C996.008 128.51 997.6 130.102 999.563 130.102C1001.53 130.102 1003.12 128.51 1003.12 126.547V122.26C1007.21 120.844 1010.29 116.93 1010.29 112.179C1010.29 106.299 1005.5 101.515 999.623 101.515C997.663 101.515 996.069 99.9201 996.069 97.9601C996.069 96.0157 997.649 94.4214 999.588 94.4054C999.596 94.4054 999.605 94.405 999.614 94.405C1000.88 94.405 1002.21 95.0474 1003.47 96.2631C1004.88 97.6288 1007.13 97.5918 1008.49 96.181C1009.86 94.7701 1009.82 92.52 1008.41 91.1546C1006.59 89.3897 1004.76 88.3973 1003.12 87.8619V83.8906C1003.12 81.9277 1001.53 80.3359 999.563 80.3359C997.6 80.3359 996.008 81.9277 996.008 83.8906V87.9316C991.906 89.421 988.96 93.3639 988.96 97.9601C988.96 103.84 993.743 108.624 999.624 108.624C1001.58 108.624 1003.18 110.219 1003.18 112.179C1003.18 114.15 1001.56 115.765 999.595 115.734Z" fill="black"/>
<path d="M946.906 131.834C948.785 134.076 951 135.646 953.352 136.448V140.766C953.352 142.729 954.943 144.32 956.906 144.32C958.87 144.32 960.461 142.729 960.461 140.766V136.478C964.555 135.063 967.631 131.149 967.631 126.398C967.631 120.517 962.847 115.734 956.967 115.734C955.007 115.734 953.412 114.139 953.412 112.179C953.412 110.234 954.992 108.64 956.931 108.624C956.94 108.624 956.949 108.624 956.957 108.624C958.223 108.624 959.555 109.266 960.811 110.482C962.222 111.848 964.472 111.811 965.838 110.4C967.203 108.989 967.167 106.739 965.756 105.373C963.932 103.608 962.106 102.616 960.461 102.081V98.1094C960.461 96.1465 958.87 94.5547 956.907 94.5547C954.943 94.5547 953.352 96.1465 953.352 98.1094V102.15C949.25 103.64 946.303 107.583 946.303 112.179C946.303 118.059 951.087 122.843 956.967 122.843C958.927 122.843 960.522 124.438 960.522 126.398C960.522 128.367 958.926 129.953 956.972 129.953C956.961 129.953 956.95 129.953 956.939 129.952C955.401 129.938 953.815 129.01 952.354 127.267C951.093 125.762 948.851 125.565 947.347 126.827C945.842 128.088 945.644 130.33 946.906 131.834Z" fill="black"/>
<path d="M1061.06 178.445V133.656C1061.06 131.693 1059.47 130.102 1057.5 130.102H1028C1026.04 130.102 1024.45 131.693 1024.45 133.656V178.445C1024.45 180.408 1026.04 182 1028 182H1057.5C1059.47 182 1061.06 180.408 1061.06 178.445ZM1053.95 174.891H1031.55V137.211H1053.95V174.891Z" fill="black"/>
<path d="M980.723 140.766V178.445C980.723 180.408 982.314 182 984.277 182H1013.78C1015.74 182 1017.34 180.408 1017.34 178.445V140.766C1017.34 138.803 1015.74 137.211 1013.78 137.211H984.277C982.314 137.211 980.723 138.803 980.723 140.766ZM987.832 144.32H1010.23V174.891H987.832V144.32Z" fill="black"/>
<path d="M940.555 182H970.059C972.022 182 973.613 180.408 973.613 178.445V154.984C973.613 153.021 972.022 151.43 970.059 151.43H940.555C938.591 151.43 937 153.021 937 154.984V178.445C937 180.408 938.591 182 940.555 182ZM944.109 158.539H966.504V174.891H944.109V158.539Z" fill="black"/>
<path d="M949.53 73.2365C947.572 73.384 946.105 75.091 946.252 77.0486C946.393 78.9151 947.951 80.3359 949.793 80.3359C949.883 80.3359 949.973 80.3327 950.064 80.326C990.802 77.2544 1017.93 58.5436 1045.77 28.9743V34.125C1045.77 36.0879 1047.36 37.6797 1049.33 37.6797C1051.29 37.6797 1052.88 36.0879 1052.88 34.125V19.9062C1052.88 17.9434 1051.29 16.3516 1049.33 16.3516H1035.11C1033.15 16.3516 1031.55 17.9434 1031.55 19.9062C1031.55 21.8691 1033.15 23.4574 1035.11 23.4574H1041.2C1017.78 48.3804 992.188 70.0202 949.53 73.2365Z" fill="black"/>
<path d="M1101.23 144.32C1103.19 144.32 1104.78 142.729 1104.78 140.766C1104.78 138.802 1103.19 137.211 1101.23 137.211C1099.26 137.211 1097.67 138.802 1097.67 140.766C1097.67 142.729 1099.26 144.32 1101.23 144.32Z" fill="black"/>
<path d="M1104.78 105.219C1104.78 103.256 1103.19 101.664 1101.23 101.664H1071.72C1069.76 101.664 1068.17 103.256 1068.17 105.219V178.445C1068.17 180.408 1069.76 182 1071.72 182H1101.23C1103.19 182 1104.78 180.408 1104.78 178.445V156.762C1104.78 154.799 1103.19 153.207 1101.23 153.207C1099.26 153.207 1097.67 154.799 1097.67 156.762V174.891H1075.28V108.773H1097.67V124.77C1097.67 126.732 1099.26 128.324 1101.23 128.324C1103.19 128.324 1104.78 126.732 1104.78 124.77V105.219Z" fill="black"/>
<path d="M895 164H925V178H895V164Z" fill="url(#paint4_linear)"/>
<path d="M895.555 182H925.059C927.022 182 928.613 180.408 928.613 178.445V163.945C928.613 161.982 927.022 160.391 925.059 160.391H895.555C893.591 160.391 892 161.982 892 163.945V178.445C892 180.408 893.591 182 895.555 182ZM899.109 167.5H921.504V174.891H899.109V167.5Z" fill="black"/>
<path opacity="0.8" d="M851.207 182H880.711C882.674 182 884.266 180.408 884.266 178.445V171.336C884.266 169.373 882.674 167.781 880.711 167.781H851.207C849.244 167.781 847.652 169.373 847.652 171.336V178.445C847.652 180.408 849.244 182 851.207 182Z" fill="black"/>
<path opacity="0.7" d="M806.594 182H836.098C838.061 182 839.652 180.408 839.652 178.445V171.336C839.652 169.373 838.061 167.781 836.098 167.781H806.594C804.63 167.781 803.039 169.373 803.039 171.336V178.445C803.039 180.408 804.63 182 806.594 182Z" fill="black"/>
<path opacity="0.45" d="M717.367 182H746.871C748.834 182 750.426 180.408 750.426 178.445V171.336C750.426 169.373 748.834 167.781 746.871 167.781H717.367C715.404 167.781 713.812 169.373 713.812 171.336V178.445C713.812 180.408 715.404 182 717.367 182Z" fill="black"/>
<path opacity="0.45" d="M628.141 182H657.645C659.608 182 661.199 180.408 661.199 178.445V171.336C661.199 169.373 659.608 167.781 657.645 167.781H628.141C626.177 167.781 624.586 169.373 624.586 171.336V178.445C624.586 180.408 626.177 182 628.141 182Z" fill="black"/>
<path opacity="0.25" d="M538.914 182H568.418C570.381 182 571.973 180.408 571.973 178.445V171.336C571.973 169.373 570.381 167.781 568.418 167.781H538.914C536.951 167.781 535.359 169.373 535.359 171.336V178.445C535.359 180.408 536.951 182 538.914 182Z" fill="black"/>
<path opacity="0.25" d="M449.688 182H479.191C481.155 182 482.746 180.408 482.746 178.445V171.336C482.746 169.373 481.155 167.781 479.191 167.781H449.688C447.724 167.781 446.133 169.373 446.133 171.336V178.445C446.133 180.408 447.724 182 449.688 182Z" fill="black"/>
<path opacity="0.15" d="M360.461 182H389.965C391.928 182 393.52 180.408 393.52 178.445V171.336C393.52 169.373 391.928 167.781 389.965 167.781H360.461C358.498 167.781 356.906 169.373 356.906 171.336V178.445C356.906 180.408 358.498 182 360.461 182Z" fill="black"/>
<path opacity="0.1" d="M182.008 182H211.512C213.475 182 215.066 180.408 215.066 178.445V171.336C215.066 169.373 213.475 167.781 211.512 167.781H182.008C180.045 167.781 178.453 169.373 178.453 171.336V178.445C178.453 180.408 180.045 182 182.008 182Z" fill="black"/>
<path opacity="0.15" d="M271.234 182H300.738C302.702 182 304.293 180.408 304.293 178.445V171.336C304.293 169.373 302.702 167.781 300.738 167.781H271.234C269.271 167.781 267.68 169.373 267.68 171.336V178.445C267.68 180.408 269.271 182 271.234 182Z" fill="black"/>
<path opacity="0.1" d="M92.7812 182H122.285C124.248 182 125.84 180.408 125.84 178.445V171.336C125.84 169.373 124.248 167.781 122.285 167.781H92.7812C90.818 167.781 89.2266 169.373 89.2266 171.336V178.445C89.2266 180.408 90.818 182 92.7812 182Z" fill="black"/>
<path opacity="0.6" d="M761.98 182H791.484C793.448 182 795.039 180.408 795.039 178.445V171.336C795.039 169.373 793.448 167.781 791.484 167.781H761.98C760.017 167.781 758.426 169.373 758.426 171.336V178.445C758.426 180.408 760.017 182 761.98 182Z" fill="black"/>
<path opacity="0.45" d="M672.754 182H702.258C704.221 182 705.812 180.408 705.812 178.445V171.336C705.812 169.373 704.221 167.781 702.258 167.781H672.754C670.791 167.781 669.199 169.373 669.199 171.336V178.445C669.199 180.408 670.791 182 672.754 182Z" fill="black"/>
<path opacity="0.45" d="M583.527 182H613.031C614.995 182 616.586 180.408 616.586 178.445V171.336C616.586 169.373 614.995 167.781 613.031 167.781H583.527C581.564 167.781 579.973 169.373 579.973 171.336V178.445C579.973 180.408 581.564 182 583.527 182Z" fill="black"/>
<path opacity="0.25" d="M494.301 182H523.805C525.768 182 527.359 180.408 527.359 178.445V171.336C527.359 169.373 525.768 167.781 523.805 167.781H494.301C492.338 167.781 490.746 169.373 490.746 171.336V178.445C490.746 180.408 492.338 182 494.301 182Z" fill="black"/>
<path opacity="0.25" d="M405.074 182H434.578C436.541 182 438.133 180.408 438.133 178.445V171.336C438.133 169.373 436.541 167.781 434.578 167.781H405.074C403.111 167.781 401.52 169.373 401.52 171.336V178.445C401.52 180.408 403.111 182 405.074 182Z" fill="black"/>
<path opacity="0.15" d="M315.848 182H345.352C347.315 182 348.906 180.408 348.906 178.445V171.336C348.906 169.373 347.315 167.781 345.352 167.781H315.848C313.884 167.781 312.293 169.373 312.293 171.336V178.445C312.293 180.408 313.884 182 315.848 182Z" fill="black"/>
<path opacity="0.1" d="M137.395 182H166.898C168.862 182 170.453 180.408 170.453 178.445V171.336C170.453 169.373 168.862 167.781 166.898 167.781H137.395C135.431 167.781 133.84 169.373 133.84 171.336V178.445C133.84 180.408 135.431 182 137.395 182Z" fill="black"/>
<path opacity="0.15" d="M226.621 182H256.125C258.088 182 259.68 180.408 259.68 178.445V171.336C259.68 169.373 258.088 167.781 256.125 167.781H226.621C224.658 167.781 223.066 169.373 223.066 171.336V178.445C223.066 180.408 224.658 182 226.621 182Z" fill="black"/>
<path opacity="0.05" d="M48.168 182H77.6719C79.6351 182 81.2266 180.408 81.2266 178.445V171.336C81.2266 169.373 79.6351 167.781 77.6719 167.781H48.168C46.2047 167.781 44.6133 169.373 44.6133 171.336V178.445C44.6133 180.408 46.2047 182 48.168 182Z" fill="black"/>
<path opacity="0.05" d="M3.55469 182H33.0586C35.0218 182 36.6133 180.408 36.6133 178.445V171.336C36.6133 169.373 35.0218 167.781 33.0586 167.781H3.55469C1.59143 167.781 0 169.373 0 171.336V178.445C0 180.408 1.59143 182 3.55469 182Z" fill="black"/>
<defs>
<linearGradient id="paint0_linear" x1="1071.72" y1="105.219" x2="1122.49" y2="125.673" gradientUnits="userSpaceOnUse">
<stop stop-color="#FAFF00"/>
<stop offset="1" stop-color="#7FC13D"/>
</linearGradient>
<linearGradient id="paint1_linear" x1="1028" y1="133.656" x2="1069.15" y2="160.764" gradientUnits="userSpaceOnUse">
<stop stop-color="#3DC172"/>
<stop offset="1" stop-color="#5E9C1F"/>
</linearGradient>
<linearGradient id="paint2_linear" x1="984.277" y1="140.766" x2="1020.86" y2="169.408" gradientUnits="userSpaceOnUse">
<stop stop-color="#FAFF00"/>
<stop offset="1" stop-color="#7FC13D"/>
</linearGradient>
<linearGradient id="paint3_linear" x1="940.555" y1="154.984" x2="963.413" y2="183.73" gradientUnits="userSpaceOnUse">
<stop stop-color="#3DC172"/>
<stop offset="1" stop-color="#5E9C1F"/>
</linearGradient>
<linearGradient id="paint4_linear" x1="895" y1="164" x2="905.73" y2="186.993" gradientUnits="userSpaceOnUse">
<stop stop-color="#3DC172"/>
<stop offset="1" stop-color="#5E9C1F"/>
</linearGradient>
</defs>
</svg>
