<svg width="299" height="297" viewBox="0 0 299 297" fill="none" xmlns="http://www.w3.org/2000/svg">
<g clip-path="url(#clip0)">
<path d="M67.7422 5.80054C54.8412 5.80053 44.3828 16.1889 44.3828 29.0037C44.3828 41.8184 54.8412 52.2068 67.7422 52.2068C80.6432 52.2068 91.1016 41.8184 91.1016 29.0037C91.1016 16.1889 80.6432 5.80054 67.7422 5.80054Z" fill="url(#paint0_linear)"/>
<path d="M149.5 113.695C117.247 113.695 91.1016 139.666 91.1016 171.703C91.1016 203.74 117.247 229.711 149.5 229.711C181.753 229.711 207.898 203.74 207.898 171.703C207.898 139.666 181.753 113.695 149.5 113.695Z" fill="#FFF4DD"/>
<path d="M149.5 5.80054C136.599 5.80053 126.141 16.1889 126.141 29.0037C126.141 41.8184 136.599 52.2068 149.5 52.2068C162.401 52.2068 172.859 41.8184 172.859 29.0037C172.859 16.1889 162.401 5.80054 149.5 5.80054Z" fill="url(#paint1_linear)"/>
<path d="M231.258 5.80054C218.357 5.80053 207.898 16.1889 207.898 29.0037C207.898 41.8184 218.357 52.2068 231.258 52.2068C244.159 52.2068 254.617 41.8184 254.617 29.0037C254.617 16.1889 244.159 5.80054 231.258 5.80054Z" fill="url(#paint2_linear)"/>
<path d="M149.5 131.097C146.275 131.097 143.66 133.694 143.66 136.898L143.66 143.895C136.916 146.211 131.881 152.61 131.881 160.345C131.881 169.941 139.74 177.747 149.401 177.747C152.621 177.747 155.241 180.35 155.241 183.548C155.241 186.721 152.644 189.323 149.459 189.349L149.416 189.349C147.337 189.349 145.148 188.301 143.085 186.317C140.767 184.089 137.07 184.149 134.827 186.451C132.584 188.753 132.644 192.426 134.961 194.654C137.955 197.532 140.958 199.147 143.66 200.021L143.66 206.508C143.66 209.711 146.275 212.308 149.5 212.308C152.725 212.308 155.34 209.711 155.34 206.508L155.34 199.913C162.079 197.483 166.92 191.048 166.92 183.548C166.92 173.952 159.061 166.146 149.401 166.146C146.181 166.146 143.561 163.543 143.561 160.345C143.561 157.157 146.158 154.544 149.393 154.544C149.41 154.544 149.429 154.544 149.447 154.544C151.974 154.567 154.578 156.082 156.979 158.926C159.051 161.381 162.735 161.703 165.206 159.645C167.677 157.587 168.001 153.928 165.929 151.473C162.842 147.814 159.203 145.252 155.339 143.944L155.339 136.898C155.34 133.694 152.725 131.097 149.5 131.097Z" fill="black"/>
<path d="M231.258 -0.000429799C215.157 -0.000431206 202.059 13.0107 202.059 29.0034C202.059 42.7438 211.73 54.2746 224.664 57.2527C222.481 64.3946 215.793 69.6089 207.898 69.6089L172.859 69.6089C166.291 69.6089 160.223 71.7743 155.34 75.4242L155.34 57.4238C168.652 54.7288 178.699 43.0106 178.699 29.0034C178.699 13.0107 165.6 -0.000435539 149.5 -0.000436946C133.4 -0.000438354 120.301 13.0107 120.301 29.0034C120.301 43.01 130.348 54.7287 143.66 57.4238L143.66 75.4242C138.777 71.7743 132.709 69.6089 126.141 69.6089L91.1016 69.6089C83.2073 69.6089 76.5189 64.3946 74.336 57.2527C87.2695 54.274 96.9414 42.7438 96.9414 29.0034C96.9414 13.0107 83.8427 -0.000442686 67.7422 -0.000444094C51.6418 -0.000445501 38.543 13.0107 38.543 29.0034C38.543 43.1835 48.8433 55.0112 62.4005 57.5125C64.9186 70.9791 76.8261 81.2105 91.1016 81.2105L126.141 81.2105C135.801 81.2105 143.66 89.0172 143.66 98.6128L143.66 108.163C138.56 108.62 133.551 109.668 128.71 111.312C125.658 112.348 124.03 115.646 125.073 118.677C126.116 121.709 129.437 123.325 132.487 122.29C137.948 120.435 143.671 119.496 149.5 119.496C178.481 119.496 202.059 142.916 202.059 171.703C202.059 200.49 178.481 223.91 149.5 223.91C120.519 223.91 96.9414 200.49 96.9414 171.703C96.9414 165.912 97.8875 160.226 99.7533 154.805C100.797 151.774 99.1687 148.476 96.1168 147.44C93.0644 146.404 89.745 148.02 88.702 151.052C86.4192 157.684 85.2617 164.632 85.2617 171.703C85.2617 204.931 110.966 232.304 143.66 235.245L143.66 277.195L130.27 263.894C127.989 261.629 124.292 261.629 122.011 263.894C119.73 266.159 119.73 269.832 122.011 272.098L145.37 295.301C147.651 297.566 151.348 297.566 153.629 295.301L176.989 272.098C179.269 269.833 179.269 266.16 176.989 263.894C174.708 261.628 171.01 261.629 168.729 263.894L155.34 277.195L155.34 235.245C188.034 232.304 213.738 204.931 213.738 171.703C213.738 138.474 188.034 111.101 155.34 108.16L155.34 98.6128C155.34 89.0172 163.199 81.2105 172.859 81.2105L207.898 81.2105C222.174 81.2105 234.081 70.9791 236.6 57.5126C250.157 55.0113 260.457 43.1835 260.457 29.0034C260.457 13.0101 247.358 -0.000428391 231.258 -0.000429799ZM67.7422 46.4058C58.0819 46.4058 50.2227 38.5991 50.2227 29.0034C50.2227 19.4078 58.0819 11.6011 67.7422 11.6011C77.4025 11.6011 85.2617 19.4078 85.2617 29.0034C85.2617 38.5991 77.4025 46.4058 67.7422 46.4058ZM149.5 46.4058C139.84 46.4058 131.98 38.5991 131.98 29.0034C131.98 19.4078 139.84 11.6011 149.5 11.6011C159.16 11.6011 167.02 19.4078 167.02 29.0034C167.02 38.5991 159.16 46.4058 149.5 46.4058ZM231.258 46.4058C221.598 46.4058 213.738 38.5991 213.738 29.0034C213.738 19.4078 221.598 11.6011 231.258 11.6011C240.918 11.6011 248.777 19.4078 248.777 29.0034C248.777 38.5991 240.918 46.4058 231.258 46.4058Z" fill="black"/>
<path d="M108.621 125.297C105.396 125.297 102.781 127.894 102.781 131.097C102.781 134.301 105.396 136.898 108.621 136.898C111.846 136.898 114.461 134.301 114.461 131.097C114.461 127.894 111.846 125.297 108.621 125.297Z" fill="black"/>
</g>
<defs>
<linearGradient id="paint0_linear" x1="91.1016" y1="52.2068" x2="44.6964" y2="5.48909" gradientUnits="userSpaceOnUse">
<stop stop-color="#3DC172"/>
<stop offset="1" stop-color="#5E9C1F"/>
</linearGradient>
<linearGradient id="paint1_linear" x1="172.859" y1="52.2068" x2="126.454" y2="5.48909" gradientUnits="userSpaceOnUse">
<stop stop-color="#3DC172"/>
<stop offset="1" stop-color="#5E9C1F"/>
</linearGradient>
<linearGradient id="paint2_linear" x1="254.617" y1="52.2068" x2="208.212" y2="5.48909" gradientUnits="userSpaceOnUse">
<stop stop-color="#3DC172"/>
<stop offset="1" stop-color="#5E9C1F"/>
</linearGradient>
<clipPath id="clip0">
<rect width="299" height="297" fill="white" transform="translate(299 297) rotate(-180)"/>
</clipPath>
</defs>
</svg>
