<svg width="183" height="182" viewBox="0 0 183 182" fill="none" xmlns="http://www.w3.org/2000/svg">
<g clip-path="url(#clip0)">
<path d="M33.2402 142.898L40.3887 178.445H54.6855L61.834 142.898H33.2402Z" fill="#EEFAFF"/>
<path d="M47.5371 36.2578L76.1309 64.6953H61.834V84.3421H33.2402V64.6953H18.9434L47.5371 36.2578Z" fill="url(#paint0_linear)"/>
<path d="M40.3887 93.1328L68.9824 107.352V114.464C68.9824 123.749 63.0135 131.648 54.6855 134.577V142.898L47.5371 150.008L40.3887 142.898V134.577C32.0607 131.648 26.0918 123.746 26.0918 114.461V107.352L40.3887 93.1328Z" fill="#FCE8D0"/>
<path d="M121.166 142.898L128.314 178.445H142.611L149.76 142.898H121.166Z" fill="#EEFAFF"/>
<path d="M114.593 95.308L153.831 89.2295C155.782 92.4429 156.908 96.2109 156.908 100.242V114.464C156.908 123.749 150.939 131.648 142.611 134.577V142.898L135.463 150.008L128.314 142.898V134.577C119.987 131.648 114.018 123.746 114.018 114.461C114.018 111.16 114.018 104.038 114.018 100.242C114.018 98.5428 114.218 96.8898 114.593 95.308Z" fill="#E9BAA1"/>
<path d="M121.166 31.9922H106.869L135.463 3.55469L164.057 31.9922H149.76V84.3421L121.162 78.7363V78.7328L121.166 78.715V31.9922Z" fill="url(#paint1_linear)"/>
<path d="M40.3887 178.445L33.2402 142.898H25.0195C13.1746 142.898 3.57422 152.446 3.57422 164.227V178.445C11.7099 178.445 32.0561 178.445 40.3887 178.445Z" fill="url(#paint2_linear)"/>
<path d="M26.0918 100.242V107.352C33.9872 107.352 40.3887 100.985 40.3887 93.1328C44.7707 101.845 53.7241 107.352 63.521 107.352H68.9824V100.242C68.9824 88.4804 59.3989 78.9141 47.5371 78.9141C35.6671 78.9141 26.0918 88.4886 26.0918 100.242Z" fill="#FFF4DD"/>
<path d="M91.5 178.445V164.227C91.5 152.446 81.8996 142.898 70.0547 142.898H61.834L54.6855 178.445C63.0231 178.445 83.3576 178.445 91.5 178.445Z" fill="url(#paint3_linear)"/>
<path d="M128.314 178.445L121.166 142.898H112.945C101.1 142.898 91.5 152.446 91.5 164.227V178.445C99.6356 178.445 119.982 178.445 128.314 178.445Z" fill="url(#paint4_linear)"/>
<path d="M106.869 71.8047V78.9141C106.869 90.7341 116.503 100.242 128.314 100.242C141.121 100.242 149.41 93.5985 153.831 89.2298C150.025 82.9536 143.144 78.9141 135.463 78.9141H124.125C117.877 78.9141 111.605 76.5143 106.869 71.8047Z" fill="#DA8B63"/>
<path d="M179.426 178.445V164.227C179.426 152.446 169.825 142.898 157.98 142.898H149.76L142.611 178.445C150.949 178.445 171.283 178.445 179.426 178.445Z" fill="url(#paint5_linear)"/>
<path d="M179.426 182H3.57422C1.60054 182 0 180.408 0 178.445V164.226C0 150.506 11.2238 139.344 25.0195 139.344C27.9497 139.344 34.0816 139.344 36.8145 139.344V136.95C28.1677 132.868 22.5176 124.127 22.5176 114.461V100.242C22.5176 93.7228 25.1075 87.4712 29.666 82.838V68.2499H18.9434C17.4976 68.2499 16.1944 67.3836 15.6411 66.0556C15.0882 64.7276 15.3941 63.1983 16.416 62.1817L45.0098 33.7442C46.4059 32.3561 48.6684 32.3561 50.0648 33.7442L78.6585 62.1817C79.6804 63.1983 79.9864 64.7276 79.4334 66.0556C78.8801 67.384 77.577 68.2499 76.1312 68.2499H65.4086V82.838C69.9671 87.4712 72.557 93.7228 72.557 100.242V114.464C72.557 124.129 66.9069 132.868 58.2601 136.95V139.344C60.8143 139.344 67.1749 139.344 70.055 139.344C79.1464 139.344 87.1191 144.193 91.5004 151.425C95.8813 144.193 103.854 139.344 112.945 139.344C115.83 139.344 122.187 139.344 124.74 139.344V136.95C116.093 132.868 110.443 124.127 110.443 114.461V100.242C110.443 99.0175 110.534 97.7951 110.713 96.5875C105.979 91.9277 103.295 85.6021 103.295 78.914V71.8046C103.295 70.3671 104.166 69.0707 105.501 68.5204C106.837 67.9702 108.375 68.2748 109.396 69.2907C111.699 71.5803 114.523 73.2951 117.592 74.3064V35.5468H106.869C105.424 35.5468 104.12 34.6805 103.567 33.3525C103.014 32.0244 103.32 30.4952 104.341 29.4786L132.935 1.04108C134.331 -0.347026 136.594 -0.347026 137.99 1.04108L166.584 29.4786C167.606 30.4952 167.912 32.0241 167.359 33.3525C166.805 34.6809 165.502 35.5468 164.057 35.5468H153.334V40.5233C153.334 42.4866 151.734 44.078 149.76 44.078C147.786 44.078 146.186 42.4866 146.186 40.5233V31.9921C146.186 30.0288 147.786 28.4374 149.76 28.4374H155.428L135.463 8.58164L115.498 28.4374H121.166C123.14 28.4374 124.74 30.0288 124.74 31.9921V75.3593H135.463C139.207 75.3593 142.862 76.1946 146.186 77.763V72.5155C146.186 70.5523 147.786 68.9609 149.76 68.9609C151.734 68.9609 153.334 70.5523 153.334 72.5155V82.832C157.973 87.5384 160.482 93.7907 160.482 100.242V114.464C160.482 124.129 154.832 132.868 146.186 136.95V139.344C148.736 139.344 155.101 139.344 157.98 139.344C171.776 139.344 183 150.506 183 164.226V178.445C183 180.408 181.4 182 179.426 182ZM30.3101 146.453H25.0195C15.1654 146.453 7.14844 154.426 7.14844 164.226V174.891H14.2969V164.226C14.2969 162.263 15.8974 160.672 17.8711 160.672C19.8448 160.672 21.4453 162.263 21.4453 164.226V174.891H36.0288L30.3101 146.453ZM43.3188 174.891H51.7554L57.4742 146.453H56.166L50.0644 152.521C49.3664 153.215 48.4518 153.562 47.5371 153.562C46.6225 153.562 45.7078 153.215 45.0098 152.521L38.9079 146.453H37.5997L43.3188 174.891ZM67.5016 61.1405L47.5371 41.2848L27.5722 61.1405H33.2402C35.2139 61.1405 36.8145 62.732 36.8145 64.6952V77.763C40.1385 76.1946 43.7928 75.3593 47.5371 75.3593C51.2815 75.3593 54.9357 76.1946 58.2598 77.763V64.6952C58.2598 62.732 59.8603 61.1405 61.834 61.1405H67.5016ZM65.4082 100.242C65.4082 90.4109 57.3902 82.4687 47.5371 82.4687C37.6909 82.4687 29.666 90.4041 29.666 100.242V103.185C33.826 101.718 36.8145 97.767 36.8145 93.1327C36.8145 91.4841 37.9539 90.0519 39.5673 89.6733C41.18 89.2944 42.8438 90.0686 43.5851 91.5427C47.387 99.1014 55.0258 103.797 63.521 103.797H65.4082V100.242ZM65.4082 114.464V110.906H63.521C55.1155 110.906 47.3452 107.426 41.8648 101.483C39.3943 106.08 34.9498 109.475 29.666 110.547V114.461C29.666 121.982 34.454 128.719 41.5803 131.225C43.0082 131.728 43.9629 133.07 43.9629 134.577V141.426L47.5371 144.981L51.1113 141.426V134.577C51.1113 133.07 52.066 131.728 53.4939 131.225C60.6202 128.719 65.4082 121.983 65.4082 114.464ZM87.9258 164.226C87.9258 154.426 79.9088 146.453 70.0547 146.453H64.7641L59.0454 174.891H73.6289V164.226C73.6289 162.263 75.2294 160.672 77.2031 160.672C79.1768 160.672 80.7773 162.263 80.7773 164.226V174.891H87.9258V164.226ZM118.236 146.453H112.945C103.091 146.453 95.0742 154.426 95.0742 164.226V174.891H102.223V164.226C102.223 162.263 103.823 160.672 105.797 160.672C107.771 160.672 109.371 162.263 109.371 164.226V174.891H123.955L118.236 146.453ZM131.245 174.891H139.681L145.4 146.453H144.092L137.99 152.521C137.292 153.215 136.378 153.562 135.463 153.562C134.548 153.562 133.633 153.215 132.936 152.521L126.834 146.453H125.525L131.245 174.891ZM135.463 82.4687H124.125C119.48 82.4687 114.761 81.3127 110.443 78.9069V78.914C110.443 88.7516 118.46 96.6874 128.314 96.6874C136.06 96.6874 142.883 94.0815 149.092 88.7491C145.638 84.7017 140.648 82.4687 135.463 82.4687ZM153.334 114.464V100.242C153.334 98.4953 153.074 96.7695 152.574 95.1162C145.372 100.879 137.233 103.797 128.314 103.797C124.586 103.797 120.922 102.96 117.592 101.391V114.461C117.592 121.982 122.38 128.719 129.506 131.225C130.934 131.728 131.889 133.07 131.889 134.577V141.426L135.463 144.981L139.037 141.426V134.577C139.037 133.07 139.992 131.728 141.42 131.225C148.546 128.719 153.334 121.983 153.334 114.464ZM175.852 164.226C175.852 154.426 167.835 146.453 157.98 146.453H152.69L146.971 174.891H161.555V164.226C161.555 162.263 163.155 160.672 165.129 160.672C167.103 160.672 168.703 162.263 168.703 164.226V174.891H175.852V164.226Z" fill="black"/>
<path d="M149.76 60.0742C147.786 60.0742 146.186 58.4827 146.186 56.5195C146.186 54.5563 147.786 52.9648 149.76 52.9648C151.734 52.9648 153.334 54.5563 153.334 56.5195C153.334 58.4827 151.734 60.0742 149.76 60.0742Z" fill="black"/>
</g>
<defs>
<linearGradient id="paint0_linear" x1="76.1309" y1="36.2578" x2="28.7604" y2="92.5964" gradientUnits="userSpaceOnUse">
<stop stop-color="#3DC172"/>
<stop offset="1" stop-color="#5E9C1F"/>
</linearGradient>
<linearGradient id="paint1_linear" x1="164.057" y1="3.55469" x2="87.862" y2="57.4911" gradientUnits="userSpaceOnUse">
<stop stop-color="#3DC172"/>
<stop offset="1" stop-color="#5E9C1F"/>
</linearGradient>
<linearGradient id="paint2_linear" x1="40.3887" y1="142.898" x2="4.86361" y2="179.69" gradientUnits="userSpaceOnUse">
<stop stop-color="#FAFF00"/>
<stop offset="1" stop-color="#7FC13D"/>
</linearGradient>
<linearGradient id="paint3_linear" x1="91.5" y1="142.898" x2="55.9749" y2="179.69" gradientUnits="userSpaceOnUse">
<stop stop-color="#FAFF00"/>
<stop offset="1" stop-color="#7FC13D"/>
</linearGradient>
<linearGradient id="paint4_linear" x1="128.314" y1="142.898" x2="92.7894" y2="179.69" gradientUnits="userSpaceOnUse">
<stop stop-color="#3DC172"/>
<stop offset="1" stop-color="#5E9C1F"/>
</linearGradient>
<linearGradient id="paint5_linear" x1="179.426" y1="142.898" x2="143.901" y2="179.69" gradientUnits="userSpaceOnUse">
<stop stop-color="#3DC172"/>
<stop offset="1" stop-color="#5E9C1F"/>
</linearGradient>
<clipPath id="clip0">
<rect width="183" height="182" fill="white" transform="matrix(-1 0 0 1 183 0)"/>
</clipPath>
</defs>
</svg>
