<svg width="182" height="182" viewBox="0 0 182 182" fill="none" xmlns="http://www.w3.org/2000/svg">
<path d="M178.445 91V98.1094C178.445 117.742 162.531 133.656 142.898 133.656V126.547C142.898 106.914 158.813 91 178.445 91Z" fill="url(#paint0_linear)"/>
<path d="M142.898 74.6484C162.53 74.6484 178.445 58.7336 178.445 39.1016C178.445 19.4696 162.53 3.55469 142.898 3.55469C123.266 3.55469 107.352 19.4696 107.352 39.1016C107.352 58.7336 123.266 74.6484 142.898 74.6484Z" fill="#FFF4DD"/>
<path d="M142.898 154.984V162.094C123.266 162.094 107.352 146.179 107.352 126.547V119.438C126.984 119.438 142.898 135.352 142.898 154.984Z" fill="url(#paint1_linear)"/>
<path d="M88.8672 112.328V119.438C88.8672 131.218 79.3193 140.766 67.5391 140.766V133.656C67.5391 121.876 77.087 112.328 88.8672 112.328Z" fill="url(#paint2_linear)"/>
<path d="M67.5391 91C79.3183 91 88.8672 81.4511 88.8672 69.6719C88.8672 57.8927 79.3183 48.3438 67.5391 48.3438C55.7599 48.3438 46.2109 57.8927 46.2109 69.6719C46.2109 81.4511 55.7599 91 67.5391 91Z" fill="#FFF4DD"/>
<path d="M67.5391 154.984V162.094C55.7588 162.094 46.2109 152.546 46.2109 140.766V133.656C57.9912 133.656 67.5391 143.204 67.5391 154.984Z" fill="url(#paint3_linear)"/>
<path d="M31.9922 119.438V126.547C31.9922 134.399 25.6257 140.766 17.7734 140.766V133.656C17.7734 125.804 24.1399 119.438 31.9922 119.438Z" fill="url(#paint4_linear)"/>
<path d="M17.7734 154.984V162.094C9.92113 162.094 3.55469 155.727 3.55469 147.875V140.766C11.407 140.766 17.7734 147.132 17.7734 154.984Z" fill="url(#paint5_linear)"/>
<path d="M142.959 35.3976C140.999 35.3976 139.404 33.8029 139.404 31.8429C139.404 29.8988 140.985 28.3038 142.923 28.2882H142.949C144.215 28.2882 145.547 28.9302 146.803 30.1459C148.215 31.5112 150.464 31.4746 151.83 30.0638C153.195 28.6533 153.158 26.4028 151.748 25.0374C149.924 23.2718 148.098 22.2804 146.453 21.7451V17.7734C146.453 15.8102 144.861 14.2188 142.898 14.2188C140.935 14.2188 139.344 15.8102 139.344 17.7734V21.8148C135.241 23.3038 132.295 27.247 132.295 31.8432C132.295 37.7234 137.079 42.5073 142.959 42.5073C144.919 42.5073 146.513 44.1019 146.513 46.062C146.513 47.9865 144.973 49.6192 142.931 49.6167C141.393 49.6025 139.807 48.674 138.347 46.9311C137.085 45.4268 134.843 45.2295 133.339 46.4907C131.834 47.7519 131.637 49.9938 132.898 51.4985C134.777 53.7405 136.992 55.3102 139.344 56.1118V60.4297C139.344 62.3929 140.936 63.9844 142.899 63.9844C144.862 63.9844 146.453 62.3929 146.453 60.4297V56.1424C150.558 54.723 153.623 50.8018 153.623 46.0616C153.623 40.1815 148.839 35.3976 142.959 35.3976Z" fill="black"/>
<path d="M182 39.1016C182 17.541 164.459 0 142.898 0C121.338 0 103.797 17.541 103.797 39.1016C103.797 59.4639 119.443 76.2377 139.344 78.04V132.529C132.261 122.469 120.562 115.883 107.352 115.883C105.389 115.883 103.797 117.474 103.797 119.438V126.547C103.797 146.909 119.443 163.683 139.344 165.485V174.891H121.215C119.252 174.891 117.661 176.482 117.661 178.445C117.661 180.409 119.252 182 121.215 182H178.445C180.408 182 182 180.409 182 178.445C182 176.482 180.408 174.891 178.445 174.891H146.453C146.453 172.214 146.453 139.557 146.453 137.048C166.354 135.246 182 118.472 182 98.1094V91C182 89.0367 180.408 87.4453 178.445 87.4453C165.235 87.4453 153.535 94.0314 146.453 104.091V78.04C166.354 76.2377 182 59.4639 182 39.1016ZM139.344 158.343C123.37 156.569 110.906 142.986 110.906 126.547V123.188C126.88 124.963 139.344 138.545 139.344 154.984V158.343ZM174.891 94.7509V98.1094C174.891 114.548 162.427 128.131 146.453 129.905V126.547C146.453 110.108 158.917 96.5251 174.891 94.7509ZM142.898 71.0938C125.258 71.0938 110.906 56.7421 110.906 39.1016C110.906 21.4611 125.258 7.10938 142.898 7.10938C160.539 7.10938 174.891 21.4611 174.891 39.1016C174.891 56.7421 160.539 71.0938 142.898 71.0938Z" fill="black"/>
<path d="M105.219 182C107.182 182 108.773 180.409 108.773 178.445C108.773 176.482 107.182 174.891 105.219 174.891C103.256 174.891 101.664 176.482 101.664 178.445C101.664 180.409 103.256 182 105.219 182Z" fill="black"/>
<path d="M3.55469 174.891C1.59179 174.891 0 176.482 0 178.445C0 180.409 1.59179 182 3.55469 182H89.2223C91.1852 182 92.777 180.409 92.777 178.445C92.777 176.482 91.1852 174.891 89.2223 174.891H71.0938C71.0938 167.872 71.0938 150.978 71.0938 144.062C83.1356 142.331 92.4219 131.951 92.4219 119.438V112.328C92.4219 110.365 90.8301 108.773 88.8672 108.773C81.91 108.773 75.6139 111.647 71.0938 116.266V94.2966C83.1356 92.5658 92.4219 82.1851 92.4219 69.6719C92.4219 55.9515 81.2594 44.7891 67.5391 44.7891C53.8187 44.7891 42.6562 55.9515 42.6562 69.6719C42.6562 82.1851 51.9425 92.5662 63.9844 94.2966V137.594C59.4642 132.975 53.1682 130.102 46.2109 130.102C44.248 130.102 42.6562 131.693 42.6562 133.656V140.766C42.6562 153.279 51.9425 163.66 63.9844 165.39V174.891H21.3281C21.3281 168.505 21.3281 150.372 21.3281 143.963C29.431 142.311 35.5469 135.13 35.5469 126.547V119.438C35.5469 117.474 33.9551 115.883 31.9922 115.883C27.9942 115.883 24.3009 117.21 21.3281 119.447V105.219C21.3281 103.255 19.7363 101.664 17.7734 101.664C15.8105 101.664 14.2188 103.255 14.2188 105.219V140.775C11.246 138.539 7.55264 137.211 3.55469 137.211C1.59179 137.211 0 138.802 0 140.766V147.875C0 156.458 6.11584 163.639 14.2188 165.291V174.891H3.55469ZM85.3125 116.24V119.438C85.3125 128.021 79.1963 135.202 71.0938 136.854V133.656C71.0938 125.073 77.2099 117.892 85.3125 116.24ZM49.7656 69.6719C49.7656 59.8716 57.7388 51.8984 67.5391 51.8984C77.3393 51.8984 85.3125 59.8716 85.3125 69.6719C85.3125 79.4721 77.3393 87.4453 67.5391 87.4453C57.7388 87.4453 49.7656 79.4721 49.7656 69.6719ZM49.7656 140.766V137.568C57.8682 139.219 63.9844 146.401 63.9844 154.984V158.182C55.8818 156.53 49.7656 149.349 49.7656 140.766ZM21.3281 133.656C21.3281 129.022 24.2995 125.068 28.4375 123.601V126.547C28.4375 131.181 25.4661 135.135 21.3281 136.602V133.656ZM7.10938 147.875V144.929C11.2474 146.396 14.2188 150.35 14.2188 154.984V157.93C10.0807 156.463 7.10938 152.51 7.10938 147.875Z" fill="black"/>
<defs>
<linearGradient id="paint0_linear" x1="142.898" y1="91" x2="184.855" y2="125.964" gradientUnits="userSpaceOnUse">
<stop stop-color="#3DC172"/>
<stop offset="1" stop-color="#5E9C1F"/>
</linearGradient>
<linearGradient id="paint1_linear" x1="107.352" y1="119.438" x2="149.309" y2="154.402" gradientUnits="userSpaceOnUse">
<stop stop-color="#3DC172"/>
<stop offset="1" stop-color="#5E9C1F"/>
</linearGradient>
<linearGradient id="paint2_linear" x1="67.5391" y1="112.328" x2="94.8391" y2="132.803" gradientUnits="userSpaceOnUse">
<stop stop-color="#3DC172"/>
<stop offset="1" stop-color="#5E9C1F"/>
</linearGradient>
<linearGradient id="paint3_linear" x1="46.2109" y1="133.656" x2="73.5109" y2="154.131" gradientUnits="userSpaceOnUse">
<stop stop-color="#3DC172"/>
<stop offset="1" stop-color="#5E9C1F"/>
</linearGradient>
<linearGradient id="paint4_linear" x1="17.7734" y1="119.438" x2="37.4609" y2="132.562" gradientUnits="userSpaceOnUse">
<stop stop-color="#3DC172"/>
<stop offset="1" stop-color="#5E9C1F"/>
</linearGradient>
<linearGradient id="paint5_linear" x1="3.55469" y1="140.766" x2="23.2422" y2="153.891" gradientUnits="userSpaceOnUse">
<stop stop-color="#3DC172"/>
<stop offset="1" stop-color="#5E9C1F"/>
</linearGradient>
</defs>
</svg>
