<svg width="146" height="146" viewBox="0 0 146 146" fill="none" xmlns="http://www.w3.org/2000/svg">
<g clip-path="url(#clip0)">
<path d="M96.668 112.922L102.371 143.148H113.777L119.48 112.922H96.668Z" fill="#EEFAFF"/>
<path d="M26.5195 112.922L32.2227 143.148H43.6289L49.332 112.922H26.5195Z" fill="#EEFAFF"/>
<path d="M43.6289 73L20.8164 84.4062V90.1122C20.8164 97.5605 25.5785 103.897 32.2227 106.246V112.922L37.9258 118.625L43.6289 112.922V106.246C50.273 103.897 55.0352 97.5577 55.0352 90.1094V84.4062L43.6289 73Z" fill="#FCE8D0"/>
<path d="M124.724 74.7451L93.42 69.8689C91.8631 72.4467 90.9648 75.4694 90.9648 78.703V90.1121C90.9648 97.5604 95.727 103.897 102.371 106.246V112.922L108.074 118.625L113.777 112.922V106.246C120.421 103.897 125.184 97.5576 125.184 90.1093V78.703C125.184 77.34 125.024 76.014 124.724 74.7451Z" fill="#E9BAA1"/>
<path d="M113.777 143.148L119.48 112.922H126.039C135.489 112.922 143.148 120.581 143.148 130.031V143.148C136.658 143.148 120.425 143.148 113.777 143.148Z" fill="#A0E5A5"/>
<path d="M130.887 55.8906V61.5938C130.887 71.0758 123.201 78.7031 113.777 78.7031C103.56 78.7031 96.9474 73.3736 93.42 69.869C96.4142 64.9101 101.858 61.5938 108.074 61.5938H117.119C122.284 61.5938 127.234 59.5435 130.887 55.8906Z" fill="#DA8B63"/>
<path d="M73 143.148V130.031C73 120.581 80.6593 112.922 90.1094 112.922H96.668L102.371 143.148C95.719 143.148 79.4961 143.148 73 143.148Z" fill="#A0E5A5"/>
<path d="M73 59.8828C88.7487 59.8828 101.516 47.1159 101.516 31.3672C101.516 15.6184 88.7487 2.85156 73 2.85156C57.2513 2.85156 44.4844 15.6184 44.4844 31.3672C44.4844 47.1159 57.2513 59.8828 73 59.8828Z" fill="#FFDA8F"/>
<path d="M43.6289 143.148L49.332 112.922H55.8906C65.3407 112.922 73 120.581 73 130.031V143.148C66.5093 143.148 50.2768 143.148 43.6289 143.148Z" fill="#FF7D95"/>
<path d="M55.0352 78.7031V84.4062C48.7361 84.4062 43.6289 79.2991 43.6289 73C40.1329 79.9892 32.9897 84.4062 25.1736 84.4062H20.8164V78.7031C20.8164 69.253 28.4757 61.5938 37.9258 61.5938C47.3759 61.5938 55.0352 69.253 55.0352 78.7031Z" fill="#FFDA8F"/>
<path d="M2.85156 143.148V130.031C2.85156 120.581 10.5109 112.922 19.9609 112.922H26.5195L32.2227 143.148C25.5705 143.148 9.34771 143.148 2.85156 143.148Z" fill="#FF7D95"/>
<path d="M75.8515 48.4766V45.0373C79.1371 43.9012 81.6031 40.7602 81.6031 36.9505C81.6031 32.2335 77.7655 28.3959 73.0485 28.3959C71.4761 28.3959 70.1969 27.1166 70.1969 25.5443C70.1969 23.9845 71.4647 22.7056 73.0199 22.6927C73.0268 22.6927 73.0339 22.6924 73.0411 22.6924C74.0565 22.6924 75.125 23.2077 76.1327 24.183C77.2645 25.2782 79.0698 25.2489 80.1651 24.1171C81.2604 22.9853 81.2307 21.1803 80.0992 20.085C78.6355 18.668 77.1713 17.8767 75.8518 17.4484V14.2578C75.8518 12.6832 74.5752 11.4062 73.0003 11.4062C71.4254 11.4062 70.1487 12.6832 70.1487 14.2578V17.4995C66.858 18.6943 64.4941 21.8572 64.4941 25.5443C64.4941 30.2614 68.3317 34.099 73.0487 34.099C74.6211 34.099 75.9003 35.3782 75.9003 36.9505C75.9003 38.5651 74.5655 39.8321 73.0265 39.8021C71.7921 39.791 70.5203 39.0462 69.3486 37.648C68.3368 36.441 66.5383 36.2824 65.3313 37.2947C64.1245 38.3065 63.9662 40.1047 64.978 41.3117C66.4856 43.1102 68.2624 44.3695 70.149 45.0128V48.4766C70.149 50.0512 71.4256 51.3281 73.0006 51.3281C74.5755 51.3281 75.8515 50.0512 75.8515 48.4766Z" fill="black"/>
<path d="M104.367 31.3672C104.367 14.0713 90.2959 0 73 0C55.7041 0 41.6328 14.0713 41.6328 31.3672C41.6328 48.6631 55.7041 62.7344 73 62.7344C90.2959 62.7344 104.367 48.6631 104.367 31.3672ZM47.3359 31.3672C47.3359 17.216 58.8488 5.70312 73 5.70312C87.1512 5.70312 98.6641 17.216 98.6641 31.3672C98.6641 45.5184 87.1512 57.0312 73 57.0312C58.8488 57.0312 47.3359 45.5184 47.3359 31.3672Z" fill="black"/>
<path d="M143.148 63.5898C144.723 63.5898 146 62.3132 146 60.7383C146 59.1634 144.723 57.8867 143.148 57.8867C141.574 57.8867 140.297 59.1634 140.297 60.7383C140.297 62.3132 141.574 63.5898 143.148 63.5898Z" fill="black"/>
<path d="M131.742 28.5156H119.806L126.344 21.9773C127.458 20.8637 127.458 19.0581 126.344 17.9443C125.231 16.8311 123.425 16.8311 122.311 17.9443L110.905 29.3506C109.792 30.4641 109.792 32.2697 110.905 33.3835L122.311 44.7898C123.425 45.9033 125.231 45.9033 126.344 44.7898C127.458 43.6762 127.458 41.8706 126.344 40.7568L119.806 34.2188H131.742C136.459 34.2188 140.297 38.0564 140.297 42.7734V47.9062C140.297 49.4809 141.573 50.7578 143.148 50.7578C144.723 50.7578 146 49.4809 146 47.9062V42.7734C146 34.9117 139.604 28.5156 131.742 28.5156Z" fill="black"/>
<path d="M143.148 70.7187C141.574 70.7187 140.297 71.9956 140.297 73.5703V78.7031C140.297 83.4201 136.459 87.2578 131.742 87.2578H128.035V78.7031C128.035 77.721 127.963 76.7401 127.82 75.7714C131.597 72.0333 133.738 66.9589 133.738 61.5937V55.8906C133.738 54.7371 133.043 53.6974 131.978 53.256C130.912 52.8152 129.686 53.059 128.87 53.8742C125.731 57.0135 121.558 58.7421 117.119 58.7421H108.074C96.9956 58.7421 88.1133 67.7291 88.1133 78.7031V87.2578H57.8867V78.7031C57.8867 67.6966 48.9322 58.7421 37.9258 58.7421C26.9193 58.7421 17.9648 67.6966 17.9648 78.7031V87.2595L14.2578 87.2578C9.54076 87.2578 5.70312 83.4201 5.70312 78.7031V42.7734C5.70312 38.0563 9.54076 34.2187 14.2578 34.2187H25.3384L18.8001 40.7571C17.6865 41.8706 17.6865 43.6762 18.8001 44.79C19.9139 45.9036 21.7192 45.9036 22.833 44.79L34.2393 33.3838C35.3528 32.2702 35.3528 30.4646 34.2393 29.3508L22.833 17.9446C21.7195 16.8313 19.9139 16.8313 18.8001 17.9446C17.6865 19.0581 17.6865 20.8637 18.8001 21.9775L25.3384 28.5156H14.2578C6.39605 28.5156 0 34.9116 0 42.7734V78.7031C0 86.5648 6.39605 92.9609 14.2567 92.9609L18.1702 92.9598C19.1229 99.5466 23.3303 105.282 29.3714 108.15V110.07C26.6926 110.07 21.5276 110.07 19.9612 110.07C8.95476 110.07 0.000285156 119.025 0.000285156 130.031V143.148C0.000285156 144.723 1.27693 146 2.85185 146H143.149C144.724 146 146 144.723 146 143.148V130.031C146 119.025 137.046 110.07 126.039 110.07C124.48 110.07 119.307 110.07 116.629 110.07V108.15C122.67 105.282 126.877 99.5489 127.83 92.9609H131.742C139.604 92.9609 146 86.5648 146 78.7031V73.5703C146 71.9956 144.723 70.7187 143.148 70.7187ZM17.1094 140.297V130.031C17.1094 128.457 15.8327 127.18 14.2578 127.18C12.6829 127.18 11.4062 128.457 11.4062 130.031V140.297H5.70312V130.031C5.70312 122.169 12.0992 115.773 19.9609 115.773H24.1556L28.7825 140.297H17.1094ZM121.844 115.773H126.039C133.901 115.773 140.297 122.169 140.297 130.031V140.297H134.594V130.031C134.594 128.457 133.317 127.18 131.742 127.18C130.167 127.18 128.891 128.457 128.891 130.031V140.297H117.217L121.844 115.773ZM23.668 78.7031C23.668 70.8413 30.064 64.4453 37.9258 64.4453C45.7875 64.4453 52.1836 70.8413 52.1836 78.7031V81.0642C48.8647 79.8871 46.4805 76.7175 46.4805 73C46.4805 71.6774 45.5714 70.5288 44.2842 70.2248C42.9967 69.9217 41.6702 70.5416 41.0785 71.7244C38.0455 77.7877 31.9512 81.5546 25.1736 81.5546H23.668V78.7031ZM23.668 90.1122V87.2578H25.1736C31.8796 87.2578 38.0789 84.4661 42.4512 79.6986C44.4225 83.3862 47.9681 86.11 52.1836 86.9695V90.1093C52.1836 96.1427 48.3636 101.547 42.6782 103.558C41.539 103.961 40.7773 105.038 40.7773 106.246V111.741L37.9258 114.592L35.0742 111.741V106.246C35.0742 105.038 34.3126 103.961 33.1734 103.558C27.4879 101.547 23.668 96.1435 23.668 90.1122ZM41.265 140.297H34.5866L29.9597 115.773H31.0415L35.9094 120.641C36.4664 121.198 37.1961 121.477 37.9258 121.477C38.6555 121.477 39.3855 121.198 39.9421 120.641L44.8103 115.773H45.8922L41.265 140.297ZM70.1484 140.297H64.4453V130.031C64.4453 128.457 63.1687 127.18 61.5938 127.18C60.0188 127.18 58.7422 128.457 58.7422 130.031V140.297H47.0687L51.6957 115.773H55.8906C63.7524 115.773 70.1484 122.169 70.1484 130.031V140.297ZM87.2578 140.297V130.031C87.2578 128.457 85.9812 127.18 84.4062 127.18C82.8313 127.18 81.5547 128.457 81.5547 130.031V140.297H75.8516V130.031C75.8516 122.169 82.2476 115.773 90.1094 115.773H94.304L98.931 140.297H87.2578ZM99.5195 110.07C96.8459 110.07 91.6849 110.07 90.1094 110.07C82.8561 110.07 76.4954 113.96 73 119.762C69.5046 113.96 63.1439 110.07 55.8906 110.07C54.3305 110.07 49.1578 110.07 46.4805 110.07V108.15C52.5212 105.282 56.7287 99.5489 57.6814 92.9609H88.318C89.2702 99.5486 93.4779 105.282 99.5192 108.15V110.07H99.5195ZM111.413 140.297H104.735L100.108 115.773H101.19L106.058 120.641C106.615 121.198 107.345 121.477 108.074 121.477C108.804 121.477 109.534 121.198 110.091 120.641L114.959 115.773H116.041L111.413 140.297ZM122.332 90.1093C122.332 96.1427 118.512 101.547 112.827 103.558C111.687 103.961 110.926 105.038 110.926 106.246V111.741L108.074 114.592L105.223 111.741V106.246C105.223 105.038 104.461 103.961 103.322 103.558C97.6364 101.547 93.8164 96.1435 93.8164 90.1093V78.7031C93.8164 77.3018 94.0217 75.9168 94.4201 74.5908C100.167 79.2152 106.662 81.5546 113.777 81.5546C116.752 81.5546 119.675 80.8834 122.332 79.6247V90.1093ZM113.777 75.8515C107.595 75.8515 102.149 73.7642 97.1929 69.4823C99.8797 66.2937 103.807 64.4453 108.074 64.4453H117.119C121.005 64.4453 124.738 63.4592 128.035 61.6051C128.029 69.5262 121.601 75.8515 113.777 75.8515Z" fill="black"/>
</g>
<defs>
<clipPath id="clip0">
<rect width="146" height="146" fill="white"/>
</clipPath>
</defs>
</svg>
