<svg width="73" height="73" viewBox="0 0 73 73" fill="none" xmlns="http://www.w3.org/2000/svg">
<g clip-path="url(#clip0)">
<path d="M59.3125 57.003C60.8874 57.003 62.1641 55.7333 62.1641 54.167C62.1641 52.6008 60.8874 51.3311 59.3125 51.3311C57.7376 51.3311 56.4609 52.6008 56.4609 54.167C56.4609 55.7333 57.7376 57.003 59.3125 57.003Z" fill="#FFF4DD"/>
<path d="M46.4805 65.5109C48.8428 65.5109 50.7578 63.6063 50.7578 61.2569C50.7578 58.9075 48.8428 57.0029 46.4805 57.0029C44.1182 57.0029 42.2031 58.9075 42.2031 61.2569C42.2031 63.6063 44.1182 65.5109 46.4805 65.5109Z" fill="#FFF4DD"/>
<path d="M16.5391 62.675C19.6888 62.675 22.2422 60.1355 22.2422 57.003C22.2422 53.8705 19.6888 51.3311 16.5391 51.3311C13.3893 51.3311 10.8359 53.8705 10.8359 57.003C10.8359 60.1355 13.3893 62.675 16.5391 62.675Z" fill="#FFF4DD"/>
<path d="M36.5 1.41797C17.6498 1.41797 1.50994 16.5749 1.42725 35.3037C1.50994 32.238 4.17187 29.7778 7.27152 29.7778C10.4211 29.7778 13.1172 32.3174 13.1172 35.4497C13.1172 32.3174 15.8134 29.7778 18.9629 29.7778C22.1125 29.7778 24.8086 32.3174 24.8086 35.4497C24.8086 32.3174 27.5048 29.7778 30.6543 29.7778C33.8039 29.7778 36.5 32.3174 36.5 35.4497C36.5 32.3174 39.1962 29.7778 42.3457 29.7778C45.4953 29.7778 48.1914 32.3174 48.1914 35.4497C48.1914 32.3174 50.8876 29.7778 54.0371 29.7778C57.1867 29.7778 59.8828 32.3174 59.8828 35.4497C59.8828 32.3174 62.579 29.7778 65.7285 29.7778C68.8282 29.7778 71.4901 32.238 71.5728 35.3037C71.4901 16.5749 55.3503 1.41797 36.5 1.41797Z" fill="url(#paint0_linear)"/>
<path d="M16.5391 49.9131C12.6082 49.9131 9.41016 53.0936 9.41016 57.003C9.41016 60.9124 12.6082 64.093 16.5391 64.093C20.4699 64.093 23.668 60.9124 23.668 57.003C23.668 53.0936 20.4699 49.9131 16.5391 49.9131ZM16.5391 61.257C14.1805 61.257 12.2617 59.3487 12.2617 57.003C12.2617 54.6574 14.1805 52.7491 16.5391 52.7491C18.8976 52.7491 20.8164 54.6574 20.8164 57.003C20.8164 59.3487 18.8976 61.257 16.5391 61.257Z" fill="black"/>
<path d="M59.3125 49.9131C56.954 49.9131 55.0352 51.8214 55.0352 54.1671C55.0352 56.5127 56.954 58.421 59.3125 58.421C61.671 58.421 63.5898 56.5127 63.5898 54.1671C63.5898 51.8214 61.671 49.9131 59.3125 49.9131ZM59.3125 55.5851C58.5263 55.5851 57.8867 54.9489 57.8867 54.1671C57.8867 53.3852 58.5263 52.7491 59.3125 52.7491C60.0987 52.7491 60.7383 53.3852 60.7383 54.1671C60.7383 54.9489 60.0987 55.5851 59.3125 55.5851Z" fill="black"/>
<path d="M46.4805 55.585C43.3358 55.585 40.7773 58.1294 40.7773 61.2569C40.7773 64.3844 43.3358 66.9289 46.4805 66.9289C49.6252 66.9289 52.1836 64.3844 52.1836 61.2569C52.1836 58.1294 49.6252 55.585 46.4805 55.585ZM46.4805 64.0929C44.9081 64.0929 43.6289 62.8207 43.6289 61.2569C43.6289 59.6932 44.9081 58.4209 46.4805 58.4209C48.0528 58.4209 49.332 59.6932 49.332 61.2569C49.332 62.8207 48.0528 64.0929 46.4805 64.0929Z" fill="black"/>
<path d="M20.8164 45.6597V38.2862C20.8164 37.5031 20.1781 36.8682 19.3906 36.8682C18.6032 36.8682 17.9648 37.5031 17.9648 38.2862V45.6597C17.9648 46.4427 18.6032 47.0777 19.3906 47.0777C20.1781 47.0777 20.8164 46.4427 20.8164 45.6597Z" fill="black"/>
<path d="M15.1133 45.6597V41.1221C15.1133 40.3391 14.475 39.7041 13.6875 39.7041C12.9 39.7041 12.2617 40.3391 12.2617 41.1221V45.6597C12.2617 46.4427 12.9 47.0776 13.6875 47.0776C14.475 47.0776 15.1133 46.4427 15.1133 45.6597Z" fill="black"/>
<path d="M60.7383 45.6597V41.1221C60.7383 40.3391 60.0998 39.7041 59.3125 39.7041C58.5252 39.7041 57.8867 40.3391 57.8867 41.1221V45.6597C57.8867 46.4427 58.5252 47.0776 59.3125 47.0776C60.0998 47.0776 60.7383 46.4427 60.7383 45.6597Z" fill="black"/>
<path d="M47.9062 51.3314V44.8086C47.9062 44.0256 47.2678 43.3906 46.4805 43.3906C45.6932 43.3906 45.0547 44.0256 45.0547 44.8086V51.3314C45.0547 52.1144 45.6932 52.7494 46.4805 52.7494C47.2678 52.7494 47.9062 52.1144 47.9062 51.3314Z" fill="black"/>
<path d="M62.4492 14.1797C63.2367 14.1797 63.875 13.5449 63.875 12.7617C63.875 11.9786 63.2367 11.3438 62.4492 11.3438C61.6618 11.3438 61.0234 11.9786 61.0234 12.7617C61.0234 13.5449 61.6618 14.1797 62.4492 14.1797Z" fill="black"/>
<path d="M72.9986 35.2975C72.9702 28.8663 71.0994 22.5531 67.5884 17.0403C67.167 16.3788 66.286 16.1818 65.621 16.601C64.9557 17.02 64.758 17.8962 65.1793 18.5577C67.3232 21.924 68.8001 25.6136 69.5573 29.442C68.4401 28.7581 67.1261 28.3598 65.7285 28.3598C63.9968 28.3598 62.3443 28.9668 61.0197 30.076C59.8222 18.9867 55.126 10.4631 49.7241 5.54562C52.2398 6.60996 54.6355 7.97478 56.8408 9.61653C57.4711 10.0862 58.3646 9.95798 58.8366 9.33094C59.3085 8.70405 59.1799 7.8154 58.5494 7.34604C52.1863 2.60882 44.3556 0 36.5 0C16.9625 0 0.108787 15.6633 0.00199609 35.262V35.263V35.2684C0.00199609 35.2782 0.00156836 35.2878 0.00142578 35.2976C0.00142578 35.2987 0.00156836 35.2999 0.00156836 35.301C0.000570312 35.3505 0 35.4007 0 35.4498C0 36.2328 0.638322 36.8677 1.42578 36.8677C2.21324 36.8677 2.85156 36.2328 2.85156 35.4498C2.85156 35.415 2.85142 35.3791 2.85242 35.3417C2.91401 33.0556 4.89642 31.1958 7.27148 31.1958C9.66737 31.1958 11.6914 33.1438 11.6914 35.4498C11.6914 36.2328 12.3297 36.8677 13.1172 36.8677C13.9046 36.8677 14.543 36.2328 14.543 35.4498C14.543 33.1438 16.567 31.1958 18.9629 31.1958C21.3588 31.1958 23.3828 33.1438 23.3828 35.4498C23.3828 36.2328 24.0211 36.8677 24.8086 36.8677C25.5961 36.8677 26.2344 36.2328 26.2344 35.4498C26.2344 33.1438 28.2584 31.1958 30.6543 31.1958C33.0502 31.1958 35.0742 33.1438 35.0742 35.4498V65.5112C35.0742 67.8568 33.1554 69.7651 30.7969 69.7651C28.4383 69.7651 26.5195 67.8568 26.5195 65.5112C26.5195 64.7281 25.8812 64.0932 25.0938 64.0932C24.3063 64.0932 23.668 64.7281 23.668 65.5112C23.668 69.4206 26.866 72.6011 30.7969 72.6011C34.7278 72.6011 37.9258 69.4206 37.9258 65.5112V35.4498C37.9258 33.1438 39.9498 31.1958 42.3457 31.1958C44.7416 31.1958 46.7656 33.1438 46.7656 35.4498C46.7656 36.2328 47.4041 36.8677 48.1914 36.8677C48.9787 36.8677 49.6172 36.2328 49.6172 35.4498C49.6172 33.1438 51.6412 31.1958 54.0371 31.1958C56.433 31.1958 58.457 33.1438 58.457 35.4498C58.457 36.2328 59.0955 36.8677 59.8828 36.8677C60.6701 36.8677 61.3086 36.2328 61.3086 35.4498C61.3086 33.1438 63.3326 31.1958 65.7285 31.1958C68.1034 31.1958 70.086 33.0556 70.1476 35.3444C70.1486 35.3791 70.1484 35.415 70.1484 35.4498C70.1484 36.2328 70.7869 36.8677 71.5742 36.8677C72.3615 36.8677 73 36.2328 73 35.4498C73 35.4001 72.9994 35.3501 72.9984 35.3013C72.9984 35.3 72.9986 35.2987 72.9986 35.2975ZM11.9803 30.076C10.6556 28.9668 9.00324 28.3598 7.27148 28.3598C5.87992 28.3598 4.5712 28.7547 3.45695 29.4331C5.59391 18.8566 13.2233 9.90608 23.2223 5.59411C17.8355 10.5255 13.1724 19.0369 11.9803 30.076ZM23.5359 29.9628C22.2351 28.9249 20.6356 28.3598 18.9629 28.3598C17.5056 28.3598 16.1043 28.7899 14.9073 29.5867C16.1475 19.6894 21.258 8.41747 30.1158 4.29155C25.7174 10.7665 23.9752 22.1232 23.5359 29.9628ZM35.0742 29.846C33.8019 28.8835 32.2623 28.3598 30.6543 28.3598C29.1179 28.3598 27.6433 28.8368 26.405 29.719C26.8456 22.401 29.2883 6.38776 35.0742 3.23486V29.846ZM42.3457 28.3598C40.7377 28.3598 39.1981 28.8835 37.9258 29.846V3.23486C43.7157 6.39017 46.146 22.2624 46.595 29.719C45.3568 28.8368 43.8821 28.3598 42.3457 28.3598ZM54.0371 28.3598C52.3644 28.3598 50.7648 28.9249 49.4641 29.963C49.0248 22.1228 47.2826 10.7665 42.8842 4.29155C51.7654 8.42825 56.8576 19.7292 58.0929 29.5867C56.8957 28.7899 55.4944 28.3598 54.0371 28.3598Z" fill="black"/>
</g>
<defs>
<linearGradient id="paint0_linear" x1="1.42725" y1="1.41797" x2="28.1572" y2="56.5132" gradientUnits="userSpaceOnUse">
<stop stop-color="#FAFF00"/>
<stop offset="1" stop-color="#7FC13D"/>
</linearGradient>
<clipPath id="clip0">
<rect width="73" height="72.6011" fill="white"/>
</clipPath>
</defs>
</svg>
