<svg width="73" height="73" viewBox="0 0 73 73" fill="none" xmlns="http://www.w3.org/2000/svg">
<g clip-path="url(#clip0)">
<path d="M68.3049 27.0827L71.5742 36.5H60.4659L62.8142 27.2709C63.1179 26.0219 64.2443 25.0938 65.5859 25.0938C66.8606 25.0938 67.9399 25.9293 68.3049 27.0827Z" fill="url(#paint0_linear)"/>
<path d="M50.7578 36.5L49.4618 42.4484L51.0758 51.1898C51.2839 52.56 52.4659 53.6094 53.8945 53.6094C55.2362 53.6094 56.3626 52.6812 56.6663 51.4322L60.466 36.5H50.7578Z" fill="url(#paint1_linear)"/>
<path d="M36.5 50.7578C44.3744 50.7578 50.7578 44.3744 50.7578 36.5C50.7578 28.6256 44.3744 22.2422 36.5 22.2422C28.6256 22.2422 22.2422 28.6256 22.2422 36.5C22.2422 44.3744 28.6256 50.7578 36.5 50.7578Z" fill="#FFF4DD"/>
<path d="M45.0219 13.2555C44.8137 11.8853 43.6317 10.8359 42.2031 10.8359C40.7488 10.8359 39.5483 11.9252 39.3729 13.3325L38.2551 22.3491L47.1078 26.9729L45.0219 13.2555Z" fill="url(#paint2_linear)"/>
<path d="M26.0647 46.2148L27.9738 59.7156C28.1692 61.0986 29.3583 62.1636 30.7969 62.1636C32.2512 62.1636 33.4517 61.0743 33.627 59.6671L34.7449 50.6504L26.0647 46.2148Z" fill="url(#paint3_linear)"/>
<path d="M21.9285 18.9871C21.7332 17.6041 20.5441 16.5391 19.1054 16.5391C17.7025 16.5391 16.5376 17.5514 16.2981 18.8845L12.9917 36.5H22.2422L23.7792 30.054L21.9285 18.9871Z" fill="url(#paint4_linear)"/>
<path d="M12.9917 36.5L10.2214 51.264C9.98189 52.5971 8.81703 53.6094 7.41406 53.6094C6.0282 53.6094 4.87332 52.6199 4.61525 51.3096L1.42578 36.5H12.9917Z" fill="url(#paint5_linear)"/>
<path d="M36.5131 40.7175C35.8958 40.7119 35.2599 40.3395 34.6741 39.6404C34.1682 39.0367 33.269 38.9579 32.6655 39.4636C32.0621 39.9696 31.9829 40.8687 32.4888 41.4723C33.2426 42.3715 34.131 43.0011 35.0743 43.3228V45.0547C35.0743 45.842 35.7126 46.4805 36.5001 46.4805C37.2876 46.4805 37.9259 45.842 37.9259 45.0547V43.3351C39.5678 42.7673 40.8017 41.1974 40.8017 39.2917C40.8017 36.9488 38.891 35.0143 36.5243 35.0143C35.7382 35.0143 35.0986 34.3747 35.0986 33.5886C35.0986 32.8087 35.7325 32.169 36.5101 32.1628C36.5135 32.1628 36.5171 32.1626 36.5206 32.1626C37.0283 32.1626 37.5626 32.4203 38.0665 32.9079C38.6322 33.4555 39.5349 33.441 40.0825 32.875C40.6302 32.3091 40.6153 31.4065 40.0496 30.8589C39.3181 30.151 38.5854 29.7529 37.9259 29.5382V27.9453C37.9259 27.158 37.2876 26.5195 36.5001 26.5195C35.7126 26.5195 35.0743 27.158 35.0743 27.9453V29.5661C33.429 30.1635 32.247 31.745 32.247 33.5886C32.247 35.7806 33.9047 37.5917 36.0322 37.8367C36.3498 37.9537 37.9501 37.7304 37.9501 39.2917C37.95 40.1125 37.264 40.7366 36.5131 40.7175Z" fill="black"/>
<path d="M14.8281 27.9453C15.6156 27.9453 16.2539 27.307 16.2539 26.5195C16.2539 25.7321 15.6156 25.0938 14.8281 25.0938C14.0407 25.0938 13.4023 25.7321 13.4023 26.5195C13.4023 27.307 14.0407 27.9453 14.8281 27.9453Z" fill="black"/>
<path d="M12.2787 32.5697L11.8086 35.0742H1.42579C0.994922 35.0742 0.587291 35.269 0.316536 35.6042C0.0459224 35.9395 -0.05873 36.3791 0.0319497 36.8003L3.21914 51.5987C3.61822 53.5908 5.38005 55.0352 7.41407 55.0352C9.48744 55.0352 11.2583 53.5552 11.6228 51.5269L14.1748 37.9258H20.8811C21.1797 41.2305 22.5121 44.3428 24.7141 46.8463L26.5622 59.9153C26.8579 62.0102 28.6785 63.5898 30.7969 63.5898C32.9508 63.5898 34.7758 61.9794 35.042 59.843L35.9926 52.1753C36.1614 52.1806 36.3306 52.1836 36.5 52.1836C41.3029 52.1836 45.7878 49.9654 48.7266 46.3192L49.6701 51.4288C49.9952 53.4866 51.8069 55.0352 53.8945 55.0352C55.8717 55.0352 57.579 53.6959 58.0497 51.7775L61.5744 37.9258H71.5742C72.0356 37.9258 72.4685 37.7025 72.7359 37.3265C73.0034 36.9504 73.0724 36.4682 72.921 36.0325L69.6574 26.6317C69.0865 24.8582 67.453 23.668 65.5859 23.668C63.6087 23.668 61.9011 25.0072 61.4308 26.9259L59.3576 35.0742H52.119C51.8274 31.8602 50.5541 28.8169 48.4552 26.3489L46.4317 13.0413C46.117 10.9711 44.2992 9.41016 42.2031 9.41016C40.0492 9.41016 38.2242 11.0206 37.958 13.157L37.0074 20.8247C36.8386 20.8194 36.6694 20.8164 36.5 20.8164C31.8368 20.8164 27.5311 22.8457 24.5939 26.2813L23.3375 18.7681C23.0331 16.6831 21.2173 15.1133 19.1055 15.1133C17.0321 15.1133 15.2613 16.5932 14.8969 18.6214L14.6462 19.9567C14.5009 20.7306 15.0106 21.4757 15.7845 21.621C16.5582 21.7665 17.3036 21.2565 17.4489 20.4828L17.7014 19.1367C17.8234 18.4576 18.414 17.9648 19.1055 17.9648C19.8117 17.9648 20.4183 18.4901 20.5167 19.1865C20.5184 19.1984 22.2975 29.8389 22.2975 29.8389C21.5163 31.4976 21.0418 33.2519 20.8797 35.0742H14.7101L15.0815 33.0957C15.2268 32.3217 14.7171 31.5766 13.9432 31.4313C13.1692 31.2855 12.424 31.7956 12.2787 32.5697ZM8.81818 51.0117C8.69613 51.6908 8.10572 52.1836 7.41407 52.1836C6.73412 52.1836 6.14541 51.7001 6.01424 51.034C6.01267 51.0259 3.19134 37.9258 3.19134 37.9258H11.2737L8.81818 51.0117ZM64.1961 27.6224C64.1974 27.6175 64.1985 27.6127 64.1996 27.6075C64.3555 26.9671 64.9255 26.5195 65.5859 26.5195C66.2111 26.5195 66.7575 26.9187 66.9456 27.5129C66.9495 27.5256 66.9537 27.538 66.958 27.5504L69.57 35.0742H62.2999L64.1961 27.6224ZM52.1191 37.9258H58.632C58.632 37.9258 55.2821 51.0905 55.281 51.0954C55.125 51.736 54.555 52.1836 53.8945 52.1836C53.1958 52.1836 52.5899 51.6643 52.4854 50.9757C52.4831 50.9608 50.9437 42.6213 50.9437 42.6213C51.5812 41.1211 51.9741 39.5482 52.1191 37.9258ZM32.2122 59.4913C32.1237 60.2022 31.5152 60.7383 30.7969 60.7383C30.0907 60.7383 29.484 60.213 29.3856 59.5164L27.9937 49.6727C29.5707 50.6917 31.3214 51.4252 33.1627 51.8257L32.2122 59.4913ZM40.7878 13.5087C40.8763 12.7978 41.4848 12.2617 42.2031 12.2617C42.9019 12.2617 43.5077 12.781 43.6124 13.4698L45.1226 23.4016C43.5161 22.3426 41.7262 21.583 39.8376 21.1731L40.7878 13.5087ZM36.5 23.668C43.5974 23.668 49.332 29.4236 49.332 36.5C49.332 43.6484 43.5141 49.332 36.5 49.332C29.4424 49.332 23.668 43.6154 23.668 36.5C23.668 29.4448 29.3533 23.668 36.5 23.668Z" fill="black"/>
</g>
<defs>
<linearGradient id="paint0_linear" x1="60.4659" y1="25.0938" x2="71.8682" y2="36.1981" gradientUnits="userSpaceOnUse">
<stop stop-color="#FAFF00"/>
<stop offset="1" stop-color="#7FC13D"/>
</linearGradient>
<linearGradient id="paint1_linear" x1="49.4618" y1="36.5" x2="65.0301" y2="46.513" gradientUnits="userSpaceOnUse">
<stop stop-color="#3DC172"/>
<stop offset="1" stop-color="#5E9C1F"/>
</linearGradient>
<linearGradient id="paint2_linear" x1="38.2551" y1="10.8359" x2="51.8646" y2="18.302" gradientUnits="userSpaceOnUse">
<stop stop-color="#FAFF00"/>
<stop offset="1" stop-color="#7FC13D"/>
</linearGradient>
<linearGradient id="paint3_linear" x1="26.0647" y1="46.2148" x2="39.4578" y2="53.5041" gradientUnits="userSpaceOnUse">
<stop stop-color="#3DC172"/>
<stop offset="1" stop-color="#5E9C1F"/>
</linearGradient>
<linearGradient id="paint4_linear" x1="12.9917" y1="16.5391" x2="29.6897" y2="25.5632" gradientUnits="userSpaceOnUse">
<stop stop-color="#FAFF00"/>
<stop offset="1" stop-color="#7FC13D"/>
</linearGradient>
<linearGradient id="paint5_linear" x1="1.42578" y1="36.5" x2="17.3024" y2="47.2326" gradientUnits="userSpaceOnUse">
<stop stop-color="#3DC172"/>
<stop offset="1" stop-color="#5E9C1F"/>
</linearGradient>
<clipPath id="clip0">
<rect width="73" height="73" fill="white"/>
</clipPath>
</defs>
</svg>
