<svg width="73" height="73" viewBox="0 0 73 73" fill="none" xmlns="http://www.w3.org/2000/svg">
<g clip-path="url(#clip0)">
<path d="M71.5742 1.42578V28.8008L63.0195 34.5039L54.4648 28.8008V1.42578H71.5742Z" fill="#FFF4DD"/>
<path d="M62.1641 48.7617C63.7389 48.7617 65.0156 47.485 65.0156 45.9102C65.0156 44.3353 63.7389 43.0586 62.1641 43.0586C60.5892 43.0586 59.3125 44.3353 59.3125 45.9102C59.3125 47.485 60.5892 48.7617 62.1641 48.7617Z" fill="url(#paint0_linear)"/>
<path d="M39.3516 37.3555C40.9264 37.3555 42.2031 36.0788 42.2031 34.5039C42.2031 32.929 40.9264 31.6523 39.3516 31.6523C37.7767 31.6523 36.5 32.929 36.5 34.5039C36.5 36.0788 37.7767 37.3555 39.3516 37.3555Z" fill="url(#paint1_linear)"/>
<path d="M16.5391 57.3164C18.1139 57.3164 19.3906 56.0397 19.3906 54.4648C19.3906 52.89 18.1139 51.6133 16.5391 51.6133C14.9642 51.6133 13.6875 52.89 13.6875 54.4648C13.6875 56.0397 14.9642 57.3164 16.5391 57.3164Z" fill="url(#paint2_linear)"/>
<path d="M66.8797 59.1598C66.3228 58.603 65.4203 58.603 64.8632 59.1598C64.3064 59.7165 64.3064 60.6193 64.8632 61.1762L68.1324 64.4453H57.887V60.1679C57.887 59.3805 57.2485 58.7422 56.4612 58.7422C55.6739 58.7422 55.0354 59.3805 55.0354 60.1679V64.4453H46.4807V60.1679C46.4807 59.3805 45.8423 58.7422 45.055 58.7422C44.2676 58.7422 43.6292 59.3805 43.6292 60.1679V64.4453H35.0745V60.1679C35.0745 59.3805 34.436 58.7422 33.6487 58.7422C32.8614 58.7422 32.2229 59.3805 32.2229 60.1679V64.4453H23.6682V60.1679C23.6682 59.3805 23.0297 58.7422 22.2424 58.7422C21.4551 58.7422 20.8166 59.3805 20.8166 60.1679V64.4453H8.55491V43.6289H12.8323C13.6196 43.6289 14.258 42.9906 14.258 42.2031C14.258 41.4156 13.6196 40.7773 12.8323 40.7773H8.55491V37.9257H12.8323C13.6196 37.9257 14.258 37.2874 14.258 36.5C14.258 35.7125 13.6196 35.0742 12.8323 35.0742H8.55491V32.2226H12.8323C13.6196 32.2226 14.258 31.5843 14.258 30.7968C14.258 30.0094 13.6196 29.3711 12.8323 29.3711H8.55491V26.5195H12.8323C13.6196 26.5195 14.258 25.8812 14.258 25.0937C14.258 24.3063 13.6196 23.6679 12.8323 23.6679H8.55491V20.8164H12.8323C13.6196 20.8164 14.258 20.178 14.258 19.3906C14.258 18.6031 13.6196 17.9648 12.8323 17.9648H8.55491V15.1132H12.8323C13.6196 15.1132 14.258 14.4749 14.258 13.6875C14.258 12.9 13.6196 12.2617 12.8323 12.2617H8.55491V4.86801L11.8241 8.13718C12.381 8.69395 13.2835 8.69395 13.8406 8.13718C14.3973 7.58042 14.3973 6.67761 13.8406 6.1207L8.13744 0.417576C7.58053 -0.139192 6.67801 -0.139192 6.12095 0.417576L0.41782 6.1207C-0.138948 6.67747 -0.138948 7.58027 0.41782 8.13718C0.974731 8.69395 1.87725 8.69395 2.43431 8.13718L5.70334 4.86801V65.8711C5.70334 66.6585 6.34181 67.2968 7.12912 67.2968H68.1323L64.8631 70.566C64.3063 71.1228 64.3063 72.0256 64.8631 72.5825C65.42 73.1393 66.3225 73.1393 66.8796 72.5825L72.5827 66.8794C73.1395 66.3226 73.1395 65.4198 72.5827 64.8629L66.8797 59.1598Z" fill="black"/>
<path d="M62.1639 50.1875C64.5225 50.1875 66.4413 48.2687 66.4413 45.9102C66.4413 43.5516 64.5225 41.6328 62.1639 41.6328C61.8012 41.6328 61.4492 41.6786 61.1127 41.7638L57.6473 36.5646C57.3655 36.1417 56.8789 35.9002 56.3724 35.9324C55.8651 35.9639 55.413 36.2632 55.1857 36.7177L50.4791 46.1309L42.9848 36.7638C43.4018 36.0948 43.6288 35.3165 43.6288 34.5039C43.6288 32.6453 42.4367 31.0604 40.7772 30.4718V7.98438C40.7772 7.19692 40.1387 6.55859 39.3514 6.55859C38.5641 6.55859 37.9256 7.19692 37.9256 7.98438V30.4718C36.2662 31.0604 35.0741 32.6451 35.0741 34.5039C35.0741 35.4643 35.3923 36.3516 35.9288 37.0663L27.7236 49.3752L23.2504 44.9018C22.9482 44.5997 22.5271 44.4493 22.1015 44.4912C21.6764 44.5333 21.2926 44.7638 21.0557 45.1193L17.5903 50.3185C17.2538 50.2331 16.9016 50.1875 16.5391 50.1875C14.1805 50.1875 12.2617 52.1063 12.2617 54.4648C12.2617 56.8234 14.1805 58.7422 16.5391 58.7422C18.8976 58.7422 20.8164 56.8234 20.8164 54.4648C20.8164 53.5044 20.4982 52.617 19.9617 51.9024L22.4638 48.1482L26.937 52.6215C27.5742 53.2585 28.6338 53.1508 29.1316 52.4042L37.9256 39.2117V60.168C37.9256 60.9554 38.5641 61.5938 39.3514 61.5938C40.1387 61.5938 40.7772 60.9554 40.7772 60.168V38.5695L49.6443 49.6524C50.2903 50.4598 51.5651 50.3349 52.0329 49.3993L56.6372 40.1909L58.7412 43.3477C58.2048 44.0625 57.8866 44.9499 57.8866 45.9102C57.8866 48.2687 59.8054 50.1875 62.1639 50.1875ZM62.1639 44.4844C62.9501 44.4844 63.5897 45.124 63.5897 45.9102C63.5897 46.6963 62.9501 47.3359 62.1639 47.3359C61.3778 47.3359 60.7382 46.6963 60.7382 45.9102C60.7382 45.124 61.3779 44.4844 62.1639 44.4844ZM16.5389 55.8906C15.7527 55.8906 15.1131 55.251 15.1131 54.4648C15.1131 53.6787 15.7527 53.0391 16.5389 53.0391C17.3251 53.0391 17.9647 53.6787 17.9647 54.4648C17.9647 55.251 17.3251 55.8906 16.5389 55.8906ZM39.3514 35.9297C38.5653 35.9297 37.9256 35.2901 37.9256 34.5039C37.9256 33.7177 38.5653 33.0781 39.3514 33.0781C40.1376 33.0781 40.7772 33.7177 40.7772 34.5039C40.7772 35.2992 40.1306 35.9297 39.3514 35.9297Z" fill="black"/>
<path d="M63.0195 26.5195C63.8069 26.5195 64.4453 25.8812 64.4453 25.0938V23.3741C66.0918 22.8048 67.3211 21.232 67.3211 19.3307C67.3211 16.9722 65.4023 15.0534 63.0438 15.0534C62.2576 15.0534 61.618 14.4138 61.618 13.6276C61.618 12.8479 62.2519 12.2081 63.0295 12.2018H63.0399C63.5477 12.2018 64.082 12.4593 64.5858 12.9469C65.1518 13.4946 66.0543 13.4799 66.602 12.914C67.1496 12.3483 67.1348 11.4456 66.5692 10.898C65.8382 10.1905 65.105 9.79255 64.4453 9.57754V7.98438C64.4453 7.19692 63.8069 6.55859 63.0195 6.55859C62.2322 6.55859 61.5938 7.19692 61.5938 7.98438V9.60535C59.9483 10.2026 58.7664 11.7842 58.7664 13.6278C58.7664 15.9863 60.6853 17.9051 63.0438 17.9051C63.83 17.9051 64.4696 18.5447 64.4696 19.3309C64.4696 20.1145 63.8354 20.7568 63.0458 20.7568C63.0415 20.7568 63.0369 20.7568 63.0325 20.7568C62.4156 20.7511 61.7797 20.3787 61.1938 19.6796C60.6878 19.0762 59.7887 18.9971 59.1852 19.503C58.5818 20.0088 58.5025 20.9081 59.0084 21.5116C59.7622 22.4109 60.6506 23.0405 61.5939 23.362V25.0938C61.5938 25.8812 62.2322 26.5195 63.0195 26.5195Z" fill="black"/>
<path d="M71.5742 16.5391C72.3616 16.5391 73 15.9007 73 15.1133C73 14.3258 72.3616 13.6875 71.5742 13.6875C70.7868 13.6875 70.1484 14.3258 70.1484 15.1133C70.1484 15.9007 70.7868 16.5391 71.5742 16.5391Z" fill="black"/>
<path d="M73 1.42578C73 0.638322 72.3615 0 71.5742 0H54.4648C53.6775 0 53.0391 0.638322 53.0391 1.42578V28.8008C53.0391 29.2776 53.2773 29.7227 53.674 29.987L62.2286 35.6902C62.4682 35.8498 62.7438 35.9297 63.0195 35.9297C63.2953 35.9297 63.5709 35.8498 63.8104 35.6902L72.3651 29.987C72.7617 29.7227 73 29.2774 73 28.8008V21.5293C73 20.7418 72.3615 20.1035 71.5742 20.1035C70.7869 20.1035 70.1484 20.7418 70.1484 21.5293V28.0377L63.0195 32.7903L55.8906 28.0377V2.85156H70.1484V8.69727C70.1484 9.48472 70.7869 10.123 71.5742 10.123C72.3615 10.123 73 9.48472 73 8.69727V1.42578Z" fill="black"/>
</g>
<defs>
<linearGradient id="paint0_linear" x1="59.3125" y1="43.0586" x2="65.0156" y2="48.7617" gradientUnits="userSpaceOnUse">
<stop stop-color="#FAFF00"/>
<stop offset="1" stop-color="#7FC13D"/>
</linearGradient>
<linearGradient id="paint1_linear" x1="36.5" y1="31.6523" x2="42.2031" y2="37.3555" gradientUnits="userSpaceOnUse">
<stop stop-color="#FAFF00"/>
<stop offset="1" stop-color="#7FC13D"/>
</linearGradient>
<linearGradient id="paint2_linear" x1="13.6875" y1="51.6133" x2="19.3906" y2="57.3164" gradientUnits="userSpaceOnUse">
<stop stop-color="#FAFF00"/>
<stop offset="1" stop-color="#7FC13D"/>
</linearGradient>
<clipPath id="clip0">
<rect width="73" height="73" fill="white"/>
</clipPath>
</defs>
</svg>
