<svg width="73" height="74" viewBox="0 0 73 74" fill="none" xmlns="http://www.w3.org/2000/svg">
<g clip-path="url(#clip0)">
<path d="M57.3164 30.1059C65.1908 30.1059 71.5742 23.6874 71.5742 15.7697C71.5742 7.85211 65.1908 1.43359 57.3164 1.43359C49.442 1.43359 43.0586 7.85211 43.0586 15.7697C43.0586 23.6874 49.442 30.1059 57.3164 30.1059Z" fill="#FFF4DD"/>
<path d="M61.3086 39.5674V51.8965C59.3139 51.8965 57.6001 51.8965 55.6055 51.8965V39.5674H61.3086Z" fill="url(#paint0_linear)"/>
<path d="M47.0508 42.4346V54.7636C45.0561 54.7636 43.3423 54.7636 41.3477 54.7636V42.4346H47.0508Z" fill="url(#paint1_linear)"/>
<path d="M32.793 45.3018V57.6308C30.7983 57.6308 29.0845 57.6308 27.0898 57.6308V45.3018H32.793Z" fill="url(#paint2_linear)"/>
<path d="M18.5352 42.4346V54.7636C16.5405 54.7636 14.8267 54.7636 12.832 54.7636V42.4346H18.5352Z" fill="url(#paint3_linear)"/>
<path d="M57.3426 20.0105C57.3384 20.0105 57.3339 20.0105 57.3295 20.0103C56.7125 20.0047 56.0766 19.6303 55.4907 18.9274C54.9847 18.3204 54.0856 18.241 53.4821 18.7497C52.8787 19.2584 52.7994 20.1624 53.3053 20.7693C54.0591 21.6735 54.9475 22.3066 55.8908 22.63V24.3714C55.8908 25.163 56.5292 25.805 57.3166 25.805C58.1039 25.805 58.7423 25.163 58.7423 24.3714V22.6423C60.3841 22.0714 61.6181 20.493 61.6181 18.5767C61.6181 16.2052 59.6993 14.2759 57.3408 14.2759C56.5546 14.2759 55.915 13.6327 55.915 12.8422C55.915 12.0581 56.5489 11.4151 57.3265 11.4086C57.33 11.4086 57.3335 11.4085 57.3369 11.4085C57.8447 11.4085 58.379 11.6675 58.8829 12.1578C59.4488 12.7088 60.3515 12.6939 60.899 12.1247C61.4466 11.5557 61.4318 10.6482 60.866 10.0976C60.1346 9.3858 59.4019 8.98553 58.7423 8.76963V7.16799C58.7423 6.37635 58.1039 5.73438 57.3166 5.73438C56.5292 5.73438 55.8908 6.37635 55.8908 7.16799V8.79773C54.2453 9.39841 53.0635 10.9886 53.0635 12.8422C53.0635 15.2137 54.9823 17.1431 57.3408 17.1431C58.127 17.1431 58.7666 17.7862 58.7666 18.5767C58.7664 19.3728 58.1244 20.0105 57.3426 20.0105Z" fill="black"/>
<path d="M2.43409 8.18193L5.70312 4.89479V64.7994H1.42578C0.638465 64.7994 0 65.4414 0 66.233C0 67.0247 0.638465 67.6667 1.42578 67.6667H5.70312V71.9675C5.70312 72.7591 6.34159 73.4011 7.12891 73.4011C7.91622 73.4011 8.55469 72.7591 8.55469 71.9675V67.6667H32.0801C32.8674 67.6667 33.5059 67.0247 33.5059 66.233C33.5059 65.4414 32.8674 64.7994 32.0801 64.7994H8.55469V40.2819L22.3334 29.8258L35.7666 37.9299C36.3273 38.2681 37.0456 38.1793 37.5083 37.7143L47.2803 27.8886C50.0921 30.252 53.6051 31.5395 57.3164 31.5395C65.9643 31.5395 73 24.4652 73 15.7698C73 7.07432 65.9645 0 57.3164 0C48.6683 0 41.6328 7.07432 41.6328 15.7698C41.6328 19.5018 42.9134 23.0342 45.2637 25.8611L36.279 34.8954L22.9756 26.8695C22.4773 26.5688 21.8472 26.6023 21.3832 26.9547L8.55469 36.6898V4.89479L11.8239 8.18193C12.3809 8.74176 13.2833 8.74161 13.8403 8.18193C14.3971 7.6221 14.3971 6.71434 13.8403 6.15437L8.13722 0.419906C7.58031 -0.139778 6.67779 -0.139778 6.12074 0.419906L0.417611 6.15437C-0.139156 6.7142 -0.139156 7.62196 0.417611 8.18193C0.974521 8.74161 1.87704 8.74161 2.43409 8.18193ZM44.4844 15.7698C44.4844 8.65531 50.2408 2.86723 57.3164 2.86723C64.392 2.86723 70.1484 8.65531 70.1484 15.7698C70.1484 22.8842 64.392 28.6723 57.3164 28.6723C50.2257 28.6723 44.4844 22.904 44.4844 15.7698Z" fill="black"/>
<path d="M66.8794 59.4852C66.3225 58.9255 65.42 58.9255 64.8629 59.4852C64.3062 60.045 64.3062 60.9528 64.8629 61.5127L68.1321 64.7997H44.9121C44.1248 64.7997 43.4863 65.4417 43.4863 66.2333C43.4863 67.025 44.1248 67.667 44.9121 67.667H68.1319L64.8628 70.9541C64.306 71.5139 64.306 72.4217 64.8628 72.9816C65.4198 73.5415 66.3222 73.5413 66.8793 72.9816L72.5824 67.2472C73.1392 66.6874 73.1392 65.7796 72.5824 65.2196L66.8794 59.4852Z" fill="black"/>
<path d="M15.6836 59.0646C16.4709 59.0646 17.1094 58.4226 17.1094 57.6309V56.1973H18.5352C19.3225 56.1973 19.9609 55.5554 19.9609 54.7637V42.4346C19.9609 41.643 19.3225 41.001 18.5352 41.001H17.1094V39.5674C17.1094 38.7758 16.4709 38.1338 15.6836 38.1338C14.8963 38.1338 14.2578 38.7758 14.2578 39.5674V41.001H12.832C12.0447 41.001 11.4062 41.643 11.4062 42.4346V54.7637C11.4062 55.5554 12.0447 56.1973 12.832 56.1973H14.2578V57.6309C14.2578 58.4227 14.8963 59.0646 15.6836 59.0646ZM14.2578 43.8682H17.1094V53.3301H14.2578V43.8682Z" fill="black"/>
<path d="M29.9414 61.9318C30.7287 61.9318 31.3672 61.2898 31.3672 60.4982V59.0645H32.793C33.5803 59.0645 34.2188 58.4226 34.2188 57.6309V45.3018C34.2188 44.5102 33.5803 43.8682 32.793 43.8682H31.3672V42.4346C31.3672 41.6429 30.7287 41.001 29.9414 41.001C29.1541 41.001 28.5156 41.6429 28.5156 42.4346V43.8682H27.0898C26.3025 43.8682 25.6641 44.5102 25.6641 45.3018V57.6309C25.6641 58.4226 26.3025 59.0645 27.0898 59.0645H28.5156V60.4982C28.5156 61.2899 29.1541 61.9318 29.9414 61.9318ZM28.5156 46.7354H31.3672V56.1973H28.5156V46.7354Z" fill="black"/>
<path d="M44.1992 59.0646C44.9865 59.0646 45.625 58.4226 45.625 57.6309V56.1973H47.0508C47.8381 56.1973 48.4766 55.5554 48.4766 54.7637V42.4346C48.4766 41.643 47.8381 41.001 47.0508 41.001H45.625V39.5674C45.625 38.7758 44.9865 38.1338 44.1992 38.1338C43.4119 38.1338 42.7734 38.7758 42.7734 39.5674V41.001H41.3477C40.5603 41.001 39.9219 41.643 39.9219 42.4346V54.7637C39.9219 55.5554 40.5603 56.1973 41.3477 56.1973H42.7734V57.6309C42.7734 58.4227 43.4119 59.0646 44.1992 59.0646ZM42.7734 43.8682H45.625V53.3301H42.7734V43.8682Z" fill="black"/>
<path d="M58.457 56.1974C59.2443 56.1974 59.8828 55.5554 59.8828 54.7638V53.3302H61.3086C62.0959 53.3302 62.7344 52.6882 62.7344 51.8966V39.5675C62.7344 38.7758 62.0959 38.1338 61.3086 38.1338H59.8828V36.7002C59.8828 35.9086 59.2443 35.2666 58.457 35.2666C57.6697 35.2666 57.0312 35.9086 57.0312 36.7002V38.1338H55.6055C54.8182 38.1338 54.1797 38.7758 54.1797 39.5675V51.8966C54.1797 52.6882 54.8182 53.3302 55.6055 53.3302H57.0312V54.7638C57.0312 55.5556 57.6697 56.1974 58.457 56.1974ZM57.0312 41.0011H59.8828V50.4629H57.0312V41.0011Z" fill="black"/>
<path d="M38.4961 67.667C39.2835 67.667 39.9219 67.0252 39.9219 66.2334C39.9219 65.4417 39.2835 64.7998 38.4961 64.7998C37.7087 64.7998 37.0703 65.4417 37.0703 66.2334C37.0703 67.0252 37.7087 67.667 38.4961 67.667Z" fill="black"/>
</g>
<defs>
<linearGradient id="paint0_linear" x1="55.6055" y1="39.5674" x2="65.0013" y2="43.9136" gradientUnits="userSpaceOnUse">
<stop stop-color="#FAFF00"/>
<stop offset="1" stop-color="#7FC13D"/>
</linearGradient>
<linearGradient id="paint1_linear" x1="41.3477" y1="42.4346" x2="50.7434" y2="46.7808" gradientUnits="userSpaceOnUse">
<stop stop-color="#3DC172"/>
<stop offset="1" stop-color="#5E9C1F"/>
</linearGradient>
<linearGradient id="paint2_linear" x1="27.0898" y1="45.3018" x2="36.4856" y2="49.648" gradientUnits="userSpaceOnUse">
<stop stop-color="#FAFF00"/>
<stop offset="1" stop-color="#7FC13D"/>
</linearGradient>
<linearGradient id="paint3_linear" x1="12.832" y1="42.4346" x2="22.2278" y2="46.7808" gradientUnits="userSpaceOnUse">
<stop stop-color="#3DC172"/>
<stop offset="1" stop-color="#5E9C1F"/>
</linearGradient>
<clipPath id="clip0">
<rect width="73" height="73.4011" fill="white"/>
</clipPath>
</defs>
</svg>
