<svg width="73" height="73" viewBox="0 0 73 73" fill="none" xmlns="http://www.w3.org/2000/svg">
<g clip-path="url(#clip0)">
<path d="M71.2991 42.9258L67.4965 44.8263L65.5959 48.6289L63.6954 44.8263L59.8928 42.9258L63.6954 41.0252L65.5959 37.2227L67.4965 41.0252L71.2991 42.9258Z" fill="#FFF4DD"/>
<path d="M45.0547 9.98047H39.3516V28.8008H33.6484V9.98047H27.9453L36.5 1.42578L45.0547 9.98047Z" fill="url(#paint0_linear)"/>
<path d="M27.6702 22.9649L23.8676 24.8654L21.967 28.668L20.0665 24.8654L16.2639 22.9649L20.0665 21.0643L21.967 17.2617L23.8676 21.0643L27.6702 22.9649Z" fill="#FFF4DD"/>
<path d="M65.8711 57.3164H59.8828L54.1797 43.0586H48.1914L42.4883 28.8008C35.3579 28.8008 37.6537 28.8008 30.5117 28.8008L24.8086 43.0586H18.8203L13.1172 57.3164H7.12891L1.42578 71.5742H24.8086L19.1055 57.3164H30.5117L24.8086 71.5742H48.1914L42.4883 57.3164H53.8945L48.1914 71.5742H71.5742L65.8711 57.3164ZM30.7969 43.0586H42.2031L36.5 57.3164L30.7969 43.0586Z" fill="#FFF4DD"/>
<path d="M18.5352 34.5039L12.1191 36.6426L9.98047 43.0586L7.8418 36.6426L1.42578 34.5039L7.8418 32.3652L9.98047 25.9492L12.1191 32.3652L18.5352 34.5039Z" fill="#FFF4DD"/>
<path d="M67.1949 56.7877C66.9783 56.2463 66.454 55.8915 65.871 55.8915H60.848L55.5033 42.5299C55.2869 41.9885 54.7626 41.6336 54.1796 41.6336H49.1566L43.8119 28.2721C43.5955 27.7307 43.0712 27.3758 42.4882 27.3758H40.7773V25.8075C40.7773 25.0202 40.1389 24.3817 39.3515 24.3817C38.564 24.3817 37.9257 25.0202 37.9257 25.8075V27.3758H35.0741V9.9813C35.0741 9.19399 34.4358 8.55552 33.6483 8.55552H31.3873L36.4999 3.44295L41.6125 8.55552H39.3515C38.564 8.55552 37.9257 9.19399 37.9257 9.9813V12.9754C37.9257 13.7628 38.564 14.4012 39.3515 14.4012C40.1389 14.4012 40.7773 13.7628 40.7773 12.9754V11.4071H45.0546C45.6312 11.4071 46.1512 11.0596 46.3719 10.5269C46.5926 9.99413 46.4705 9.38091 46.0629 8.97313L37.5082 0.418445C36.9515 -0.13818 36.0487 -0.13818 35.4917 0.418445L26.937 8.97313C26.5293 9.38091 26.4074 9.99413 26.6281 10.5269C26.8486 11.0596 27.3686 11.4071 27.9452 11.4071H32.2226V27.3758H30.5116C29.9286 27.3758 29.4044 27.7307 29.1878 28.2721L23.8432 41.6336H18.8202C18.2372 41.6336 17.7129 41.9885 17.4964 42.5299L12.1518 55.8915H7.1288C6.5458 55.8915 6.02154 56.2463 5.80496 56.7877L0.101831 71.0455C-0.0738249 71.4848 -0.0202155 71.9825 0.24498 72.3743C0.510318 72.766 0.952596 73.0008 1.42567 73.0008H71.5742C72.0472 73.0008 72.4895 72.7661 72.7548 72.3743C73.02 71.9825 73.0736 71.4848 72.898 71.0455L67.1949 56.7877ZM53.2144 44.4852L57.7769 55.8915C55.2679 55.8915 40.2603 55.8915 38.6058 55.8915L43.1683 44.4852H53.2144ZM36.4999 53.4782L32.9028 44.4852H40.0972L36.4999 53.4782ZM31.477 30.2274H41.5229L46.0854 41.6336C46.0854 41.6336 28.3369 41.6336 26.9145 41.6336L31.477 30.2274ZM19.7856 44.4852H29.8315L34.394 55.8915C31.8851 55.8915 16.8774 55.8915 15.223 55.8915L19.7856 44.4852ZM3.53169 70.1493L8.0942 58.743H18.1401L22.7026 70.1493H3.53169ZM21.2113 58.743H28.4057L24.8085 67.736L21.2113 58.743ZM26.9145 70.1493L31.477 58.743H41.5229L46.0854 70.1493H26.9145ZM44.5941 58.743H51.7886L48.1913 67.736L44.5941 58.743ZM50.2973 70.1493L54.8598 58.743H64.9058L69.4683 70.1493H50.2973Z" fill="black"/>
<path d="M44.679 52.9371C45.4148 53.2314 46.2418 52.8693 46.5324 52.1428L47.3146 50.1875H50.0334C50.8209 50.1875 51.4592 49.549 51.4592 48.7617C51.4592 47.9744 50.8209 47.3359 50.0334 47.3359H46.3492C45.7662 47.3359 45.2419 47.6908 45.0253 48.2322L43.8847 51.0838C43.5923 51.8149 43.9479 52.6446 44.679 52.9371Z" fill="black"/>
<path d="M21.2963 52.9371C22.0322 53.2314 22.8591 52.8693 23.1497 52.1428L23.9319 50.1875H26.6507C27.4381 50.1875 28.0765 49.549 28.0765 48.7617C28.0765 47.9744 27.4381 47.3359 26.6507 47.3359H22.9665C22.3835 47.3359 21.8592 47.6908 21.6426 48.2322L20.502 51.0838C20.2096 51.8149 20.5652 52.6446 21.2963 52.9371Z" fill="black"/>
<path d="M38.342 61.5938H34.6577C34.0747 61.5938 33.5505 61.9486 33.3339 62.49L32.1933 65.3416C31.9009 66.0727 32.2565 66.9024 32.9876 67.1949C33.7234 67.4892 34.5504 67.1271 34.841 66.4006L35.6231 64.4453H38.342C39.1294 64.4453 39.7677 63.8068 39.7677 63.0195C39.7677 62.2322 39.1294 61.5938 38.342 61.5938Z" fill="black"/>
<path d="M61.7248 61.5938H58.0406C57.4576 61.5938 56.9333 61.9486 56.7167 62.49L55.5761 65.3416C55.2837 66.0727 55.6393 66.9024 56.3704 67.1949C57.1063 67.4892 57.9332 67.1271 58.2238 66.4006L59.006 64.4453H61.7248C62.5123 64.4453 63.1506 63.8068 63.1506 63.0195C63.1506 62.2322 62.5123 61.5938 61.7248 61.5938Z" fill="black"/>
<path d="M14.9592 61.5938H11.2749C10.6919 61.5938 10.1677 61.9486 9.9511 62.49L8.81048 65.3416C8.51805 66.0727 8.87364 66.9024 9.60478 67.1949C10.3406 67.4892 11.1676 67.1271 11.4582 66.4006L12.2403 64.4453H14.9592C15.7466 64.4453 16.3849 63.8068 16.3849 63.0195C16.3849 62.2322 15.7466 61.5938 14.9592 61.5938Z" fill="black"/>
<path d="M32.9876 38.6793C33.7234 38.9736 34.5504 38.6114 34.841 37.885L35.6231 35.9297H38.342C39.1294 35.9297 39.7677 35.2912 39.7677 34.5039C39.7677 33.7166 39.1294 33.0781 38.342 33.0781H34.6577C34.0747 33.0781 33.5505 33.433 33.3339 33.9744L32.1933 36.8259C31.9009 37.5571 32.2565 38.3867 32.9876 38.6793Z" fill="black"/>
<path d="M62.6325 45.8891L64.3205 49.2664C64.5618 49.7496 65.0556 50.0547 65.5958 50.0547C66.1359 50.0547 66.6297 49.7494 66.8712 49.2664L68.5592 45.8891L71.9364 44.2011C72.4196 43.9596 72.7247 43.4659 72.7247 42.9258C72.7247 42.3857 72.4195 41.8919 71.9364 41.6504L68.5592 39.9624L66.8712 36.5852C66.6298 36.102 66.1359 35.7969 65.5958 35.7969C65.0556 35.7969 64.562 36.1021 64.3205 36.5852L62.6325 39.9624L59.2552 41.6504C58.772 41.8919 58.4669 42.3857 58.4669 42.9258C58.4669 43.4659 58.7722 43.9596 59.2552 44.2011L62.6325 45.8891ZM64.3327 42.3006C64.6089 42.1626 64.8326 41.9387 64.9706 41.6625L65.5958 40.4117L66.221 41.6625C66.359 41.9387 66.5829 42.1626 66.8589 42.3006L68.1098 42.9258L66.8589 43.551C66.5827 43.689 66.359 43.9128 66.221 44.189L65.5958 45.4399L64.9706 44.189C64.8326 43.9128 64.6087 43.689 64.3327 43.551L63.0819 42.9258L64.3327 42.3006Z" fill="black"/>
<path d="M19.0036 25.9282L20.6916 29.3054C20.9329 29.7886 21.4267 30.0938 21.9669 30.0938C22.507 30.0938 23.0008 29.7885 23.2423 29.3054L24.9303 25.9282L28.3075 24.2402C28.7907 23.9987 29.0958 23.5049 29.0958 22.9649C29.0958 22.4248 28.7906 21.931 28.3075 21.6895L24.9303 20.0015L23.2423 16.6243C23.0009 16.1411 22.507 15.8359 21.9669 15.8359C21.4267 15.8359 20.9331 16.1412 20.6916 16.6243L19.0036 20.0015L15.6263 21.6895C15.1431 21.931 14.838 22.4248 14.838 22.9649C14.838 23.5049 15.1433 23.9987 15.6263 24.2402L19.0036 25.9282ZM20.7038 22.3396C20.98 22.2016 21.2037 21.9778 21.3417 21.7016L21.9669 20.4508L22.5921 21.7016C22.7301 21.9778 22.954 22.2016 23.23 22.3396L24.4809 22.9649L23.23 23.5901C22.9538 23.7281 22.7301 23.9519 22.5921 24.2281L21.9669 25.4789L21.3417 24.2281C21.2037 23.9519 20.9799 23.7281 20.7038 23.5901L19.453 22.9649L20.7038 22.3396Z" fill="black"/>
<path d="M11.3331 25.4984C11.1391 24.9161 10.5941 24.5234 9.98047 24.5234C9.36681 24.5234 8.82202 24.9161 8.62783 25.4984L6.71457 31.2382L0.974949 33.1511C0.39266 33.3453 0 33.8901 0 34.5039C0 35.1177 0.39266 35.6625 0.974949 35.8565L6.71457 37.7697L8.62783 43.5094C8.82202 44.0917 9.36681 44.4844 9.98047 44.4844C10.5941 44.4844 11.1389 44.0917 11.3331 43.5094L13.2464 37.7697L18.986 35.8565C19.5681 35.6625 19.9609 35.1176 19.9609 34.5039C19.9609 33.8903 19.5683 33.3453 18.986 33.1513L13.2464 31.2382L11.3331 25.4984ZM11.6683 35.2898C11.2426 35.4318 10.9084 35.7659 10.7665 36.1916L9.98047 38.5498L9.19444 36.1917C9.05257 35.766 8.71851 35.4319 8.29263 35.2899L5.93453 34.5039L8.29277 33.7179C8.71851 33.5759 9.05271 33.2418 9.19458 32.8161L9.98047 30.458L10.7665 32.8161C10.9084 33.2418 11.2424 33.5759 11.6683 33.7179L14.0264 34.5039L11.6683 35.2898Z" fill="black"/>
<path d="M39.3516 20.8164C40.139 20.8164 40.7773 20.1781 40.7773 19.3906C40.7773 18.6032 40.139 17.9648 39.3516 17.9648C38.5641 17.9648 37.9258 18.6032 37.9258 19.3906C37.9258 20.1781 38.5641 20.8164 39.3516 20.8164Z" fill="black"/>
</g>
<defs>
<linearGradient id="paint0_linear" x1="27.9453" y1="1.42578" x2="52.5521" y2="16.805" gradientUnits="userSpaceOnUse">
<stop stop-color="#3DC172"/>
<stop offset="1" stop-color="#5E9C1F"/>
</linearGradient>
<clipPath id="clip0">
<rect width="73" height="73" fill="white"/>
</clipPath>
</defs>
</svg>
