<svg width="73" height="73" viewBox="0 0 73 73" fill="none" xmlns="http://www.w3.org/2000/svg">
<path d="M71.5742 65.8711V68.7227C71.5742 70.2981 70.2981 71.5742 68.7227 71.5742H50.7578C49.1823 71.5742 47.9062 70.2981 47.9062 68.7227V65.8711H71.5742Z" fill="#6D92AC"/>
<path d="M71.5742 1.42578V16.5391C60.9871 16.5391 58.9715 16.5391 47.9062 16.5391V1.42578H71.5742Z" fill="#EEFAFF"/>
<path d="M50.7578 53.6094H68.7227V65.8711H50.7578V53.6094Z" fill="#EEFAFF"/>
<path d="M56.8887 16.5391H62.5918V22.2422H56.8887V16.5391Z" fill="#6D92AC"/>
<path d="M53.6094 33.6484V39.3516H50.4698C50.1005 41.1709 49.3762 42.8576 48.3867 44.3532L50.6152 46.5817L46.5817 50.6138L44.3546 48.3867C42.8576 49.3777 41.1709 50.1005 39.3516 50.4698V53.6094H33.6484V50.4698C31.8291 50.1005 30.1424 49.3777 28.6454 48.3867L26.4183 50.6138L22.3848 46.5817L24.6133 44.3532C23.6238 42.8576 22.8995 41.1709 22.5302 39.3516H19.3906V33.6484H22.5302C22.8995 31.8291 23.6238 30.1424 24.6133 28.6454L22.3848 26.4183L26.4183 22.3848L28.6454 24.6133C30.1424 23.6238 31.8291 22.8995 33.6484 22.5302V19.3906H39.3516V22.5302C41.1709 22.8995 42.8576 23.6238 44.3546 24.6133L46.5817 22.3848L50.6152 26.4183L48.3867 28.6454C49.3762 30.1424 50.1005 31.8291 50.4698 33.6484H53.6094Z" fill="#FFF4DD"/>
<path d="M1.42578 56.4609V71.5742H25.0938C25.0938 66.6132 25.0938 59.7258 25.0938 56.4609C21.5319 56.4609 11.5139 56.4609 1.42578 56.4609Z" fill="#6D92AC"/>
<path d="M16.5391 1.42578V19.3906H5.13281V1.42578H16.5391Z" fill="#EEFAFF"/>
<path d="M10.8359 15.1133C11.6234 15.1133 12.2617 14.4749 12.2617 13.6875C12.2617 12.9001 11.6234 12.2617 10.8359 12.2617C10.0485 12.2617 9.41016 12.9001 9.41016 13.6875C9.41016 14.4749 10.0485 15.1133 10.8359 15.1133Z" fill="black"/>
<path d="M19.3906 32.2227C18.6032 32.2227 17.9648 32.8611 17.9648 33.6484V39.3516C17.9648 40.1389 18.6032 40.7773 19.3906 40.7773H21.4105C21.7417 41.9432 22.2105 43.0672 22.8121 44.1379L21.3765 45.5734C20.8201 46.1299 20.8197 47.0332 21.3766 47.59L25.4101 51.6221C25.9669 52.1787 26.8696 52.1786 27.4263 51.622L28.8604 50.1878C29.9307 50.7892 31.0552 51.258 32.2225 51.5893V53.6094C32.2225 54.3967 32.8608 55.0352 33.6483 55.0352H39.3514C40.1389 55.0352 40.7772 54.3967 40.7772 53.6094V51.5895C41.9445 51.2581 43.0689 50.7893 44.1393 50.1879L45.5734 51.6221C46.1302 52.1787 47.0328 52.179 47.5896 51.6223L51.6231 47.5902C52.1797 47.0338 52.18 46.1304 51.6233 45.5735L50.1876 44.1381C50.7892 43.0672 51.258 41.9432 51.5892 40.7775H53.6094C54.3968 40.7775 55.0352 40.139 55.0352 39.3517V33.6486C55.0352 32.8613 54.3968 32.2228 53.6094 32.2228H51.5895C51.2583 31.0572 50.7895 29.9327 50.1878 28.8614L51.6231 27.4269C52.1799 26.8706 52.1802 25.967 51.6234 25.4101L47.5899 21.3766C47.0334 20.8201 46.1299 20.8197 45.5731 21.377L44.1386 22.8122C43.067 22.2105 41.9429 21.7419 40.7772 21.4107V19.3906C40.7772 18.6033 40.1389 17.9648 39.3514 17.9648H33.6483C32.8608 17.9648 32.2225 18.6033 32.2225 19.3906V21.4107C31.0568 21.7419 29.9326 22.2105 28.8611 22.8122L27.4266 21.377C26.87 20.8198 25.9669 20.8198 25.4098 21.3766L21.3763 25.4101C20.8198 25.9668 20.8195 26.8703 21.3766 27.4269L22.8119 28.8614C22.2104 29.9329 21.7415 31.0572 21.4102 32.2228H19.3906V32.2227ZM23.9275 33.932C24.2508 32.3391 24.8816 30.825 25.8026 29.4315C26.1763 28.8662 26.1004 28.116 25.6211 27.6369L24.4015 26.418L26.4182 24.4014L27.6371 25.621C28.1161 26.1005 28.8664 26.1765 29.4317 25.8026C30.8251 24.8817 32.3394 24.2507 33.9323 23.9273C34.5969 23.7924 35.0744 23.2082 35.0744 22.5301V20.8164H37.9259V22.5302C37.9259 23.2083 38.4036 23.7926 39.068 23.9275C40.6609 24.251 42.175 24.8819 43.5686 25.8028C44.1341 26.1766 44.8844 26.1004 45.3632 25.6211L46.5821 24.4015L48.5988 26.4182L47.3791 27.6371C46.8998 28.1161 46.8238 28.8664 47.1976 29.4317C48.1185 30.8251 48.7495 32.3394 49.0728 33.9322C49.2077 34.5967 49.792 35.0744 50.4701 35.0744H52.1836V37.9259H50.4698C49.7917 37.9259 49.2074 38.4036 49.0725 39.0681C48.7492 40.6616 48.1184 42.175 47.1976 43.5667C46.8237 44.1321 46.8994 44.8825 47.3786 45.3617L48.5988 46.5818L46.5818 48.598L45.3628 47.3789C44.8835 46.8996 44.1331 46.8241 43.5676 47.1981C42.1777 48.118 40.6639 48.7487 39.0678 49.0728C38.4033 49.2077 37.9258 49.792 37.9258 50.4701V52.1836H35.0742V50.4698C35.0742 49.7917 34.5966 49.2074 33.9322 49.0725C32.3361 48.7485 30.8221 48.1177 29.4324 47.1978C28.8669 46.8234 28.1165 46.8992 27.6372 47.3786L26.4182 48.5978L24.4012 46.5816L25.6214 45.3614C26.1006 44.8822 26.1763 44.1318 25.8024 43.5665C24.8816 42.1748 24.2508 40.6613 23.9275 39.0678C23.7926 38.4033 23.2083 37.9256 22.5302 37.9256H20.8164V35.0741H22.5302C23.2083 35.0742 23.7926 34.5966 23.9275 33.932Z" fill="black"/>
<path d="M36.5262 40.7176C36.5219 40.7176 36.5175 40.7176 36.5131 40.7175C35.8959 40.7119 35.26 40.3395 34.6741 39.6404C34.1682 39.0367 33.269 38.9578 32.6655 39.4638C32.0621 39.9696 31.9829 40.8687 32.4888 41.4723C33.2426 42.3715 34.131 43.0011 35.0743 43.3228V45.0547C35.0743 45.842 35.7126 46.4805 36.5001 46.4805C37.2876 46.4805 37.9259 45.842 37.9259 45.0547V43.3351C39.5678 42.7673 40.8017 41.1974 40.8017 39.2917C40.8017 36.9332 38.8829 35.0143 36.5243 35.0143C35.7382 35.0143 35.0986 34.3747 35.0986 33.5886C35.0986 32.8087 35.7325 32.1692 36.5101 32.1628C36.5135 32.1628 36.5171 32.1626 36.5206 32.1626C37.0284 32.1626 37.5626 32.4203 38.0665 32.9079C38.6324 33.4557 39.535 33.441 40.0827 32.875C40.6303 32.3091 40.6155 31.4065 40.0497 30.8589C39.3179 30.1504 38.5858 29.7539 37.926 29.5396V27.9453C37.926 27.158 37.2877 26.5195 36.5003 26.5195C35.7128 26.5195 35.0745 27.158 35.0745 27.9453V29.5661C33.4291 30.1635 32.2471 31.745 32.2471 33.5886C32.2471 35.9471 34.166 37.8659 36.5245 37.8659C37.3107 37.8659 37.9503 38.5055 37.9503 39.2917C37.95 40.0814 37.3101 40.7176 36.5262 40.7176Z" fill="black"/>
<path d="M71.5742 0H47.9062C47.1188 0 46.4805 0.638465 46.4805 1.42578V16.5391C46.4805 17.3264 47.1188 17.9648 47.9062 17.9648H55.4629V20.8164H54.0371C53.2497 20.8164 52.6113 21.4549 52.6113 22.2422C52.6113 23.0295 53.2497 23.668 54.0371 23.668H65.4434C66.2308 23.668 66.8691 23.0295 66.8691 22.2422C66.8691 21.4549 66.2308 20.8164 65.4434 20.8164H64.0176V17.9648H71.5742C72.3617 17.9648 73 17.3264 73 16.5391V1.42578C73 0.638465 72.3617 0 71.5742 0ZM61.166 20.8164H58.3145V17.9648H61.166V20.8164ZM70.1484 15.1133H49.332V2.85156H70.1484V15.1133Z" fill="black"/>
<path d="M16.5391 0H5.13281C4.34535 0 3.70703 0.638465 3.70703 1.42578V19.3906C3.70703 20.1779 4.34535 20.8164 5.13281 20.8164H16.5391C17.3265 20.8164 17.9648 20.1779 17.9648 19.3906V1.42578C17.9648 0.638465 17.3265 0 16.5391 0ZM15.1133 17.9648H6.55859V2.85156H15.1133V17.9648Z" fill="black"/>
<path d="M71.5742 64.4453H70.1484V53.6094C70.1484 52.8221 69.5101 52.1836 68.7227 52.1836H50.7578C49.9704 52.1836 49.332 52.8221 49.332 53.6094V64.4453H47.9062C47.1188 64.4453 46.4805 65.0838 46.4805 65.8711V68.7227C46.4805 71.0812 48.3993 73 50.7578 73H68.7227C71.0812 73 73 71.0812 73 68.7227V65.8711C73 65.0838 72.3617 64.4453 71.5742 64.4453ZM52.1836 55.0352H67.2969V64.4453H52.1836V55.0352ZM70.1484 68.7227C70.1484 69.5088 69.5088 70.1484 68.7227 70.1484H50.7578C49.9716 70.1484 49.332 69.5088 49.332 68.7227V67.2969H70.1484V68.7227Z" fill="black"/>
<path d="M29.3711 10.8358C29.3711 11.6231 30.0094 12.2616 30.7969 12.2616H38.761L38.3434 12.6792C37.7866 13.236 37.7866 14.1388 38.3434 14.6957C38.9003 15.2524 39.803 15.2524 40.3599 14.6957L43.2114 11.8441C43.7682 11.2873 43.7682 10.3845 43.2114 9.82762L40.3599 6.97606C39.8031 6.41944 38.9003 6.41944 38.3434 6.97606C37.7866 7.53283 37.7866 8.43563 38.3434 8.99254L38.761 9.41001H30.7969C30.0094 9.41001 29.3711 10.0485 29.3711 10.8358Z" fill="black"/>
<path d="M62.1641 29.3711C61.3766 29.3711 60.7383 30.0096 60.7383 30.7969V38.7609L60.3207 38.3433C59.7639 37.7866 58.8611 37.7866 58.3042 38.3433C57.7474 38.9 57.7474 39.8028 58.3042 40.3597L61.1557 43.2113C61.4342 43.4896 61.7991 43.6289 62.1639 43.6289C62.5288 43.6289 62.8938 43.4896 63.1721 43.2113L66.0237 40.3597C66.5804 39.803 66.5804 38.9002 66.0237 38.3433C65.4669 37.7866 64.5641 37.7866 64.0072 38.3433L63.5898 38.7609V30.7969C63.5898 30.0096 62.9515 29.3711 62.1641 29.3711Z" fill="black"/>
<path d="M34.6566 61.1557C34.0998 60.5991 33.197 60.5991 32.6401 61.1557L29.7885 64.0073C29.2318 64.5641 29.2318 65.4669 29.7885 66.0238L32.6401 68.8753C33.197 69.4321 34.0997 69.4321 34.6566 68.8753C35.2134 68.3186 35.2134 67.4158 34.6566 66.8589L34.239 66.4413H42.2031C42.9906 66.4413 43.6289 65.8028 43.6289 65.0155C43.6289 64.2282 42.9906 63.5897 42.2031 63.5897H34.239L34.6566 63.1721C35.2135 62.6153 35.2135 61.7125 34.6566 61.1557Z" fill="black"/>
<path d="M10.8359 43.6288C11.6234 43.6288 12.2617 42.9903 12.2617 42.203V34.239L12.6793 34.6566C13.2362 35.2134 14.1389 35.2134 14.6958 34.6566C15.2525 34.0998 15.2525 33.197 14.6958 32.6401L11.8442 29.7886C11.2874 29.2319 10.3846 29.2319 9.82773 29.7886L6.97617 32.6401C6.4194 33.1969 6.4194 34.0997 6.97617 34.6566C7.53294 35.2132 8.43574 35.2132 8.99265 34.6566L9.41012 34.239V42.203C9.41012 42.9903 10.0484 43.6288 10.8359 43.6288Z" fill="black"/>
<path d="M13.2598 73C14.0472 73 14.6855 72.3617 14.6855 71.5742C14.6855 70.7868 14.0472 70.1484 13.2598 70.1484C12.4723 70.1484 11.834 70.7868 11.834 71.5742C11.834 72.3617 12.4723 73 13.2598 73Z" fill="black"/>
<path d="M1.42578 73H6.84375C7.63121 73 8.26953 72.3615 8.26953 71.5742C8.26953 70.7869 7.63121 70.1484 6.84375 70.1484H2.85156V61.5823L12.6408 66.3001C13.0315 66.4885 13.4876 66.4886 13.8788 66.3001L23.668 61.5823V70.1484H19.6758C18.8883 70.1484 18.25 70.7869 18.25 71.5742C18.25 72.3615 18.8883 73 19.6758 73H25.0938C25.8812 73 26.5195 72.3615 26.5195 71.5742V56.4609C26.5195 55.6736 25.8812 55.0352 25.0938 55.0352H20.3887V50.7578C20.3887 49.9705 19.7503 49.332 18.9629 49.332H7.55664C6.76918 49.332 6.13086 49.9705 6.13086 50.7578V55.0352H1.42578C0.638322 55.0352 0 55.6736 0 56.4609V71.5742C0 72.3615 0.638322 73 1.42578 73ZM8.98242 52.1836H17.5371V55.0352H8.98242V52.1836ZM2.85156 57.8867H23.668V58.4168L13.2598 63.4329L2.85156 58.4168V57.8867Z" fill="black"/>
</svg>
