<svg width="181" height="177" viewBox="0 0 181 177" fill="none" xmlns="http://www.w3.org/2000/svg">
<g opacity="0.2" filter="url(#filter0_d)">
<path d="M115.36 56L121.561 56C116.155 61.6602 111.83 67.4475 108.587 73.3621C105.407 79.213 103.817 83.9828 103.817 87.6714C103.817 89.2614 104.707 90.2153 106.488 90.5333C107.06 90.6605 107.506 90.7559 107.824 90.8195C111.83 91.5827 114.787 92.8864 116.695 94.7307C118.667 96.5751 119.653 99.0236 119.653 102.076C119.653 105.065 118.667 107.482 116.695 109.326C114.724 111.171 112.18 112.093 109.064 112.093C104.993 112.093 101.655 110.662 99.0471 107.8C96.5032 104.874 95.2313 101.09 95.2313 96.4479C95.2313 90.6605 96.9802 84.2372 100.478 77.1779C103.976 70.1186 108.937 63.0593 115.36 56ZM83.3606 56L89.5613 56C84.1556 61.6602 79.8309 67.4475 76.5875 73.3621C73.4076 79.213 71.8177 83.9828 71.8177 87.6714C71.8177 89.2614 72.7398 90.2153 74.5842 90.5333C75.2201 90.6605 75.6971 90.7559 76.0151 90.8195C79.9581 91.5827 82.8836 92.8864 84.7915 94.7307C86.6994 96.575 87.6534 99.0235 87.6534 102.076C87.6534 105.065 86.6676 107.482 84.6961 109.326C82.7246 111.171 80.1807 112.093 77.0645 112.093C72.9942 112.093 69.6872 110.662 67.1433 107.8C64.663 104.938 63.4228 101.154 63.4228 96.4478C63.4228 90.5969 65.14 84.1418 68.5742 77.0825C72.0721 70.0232 77.0009 62.9957 83.3606 56Z" fill="#70D655"/>
</g>
<g filter="url(#filter1_d)">
<path d="M111.716 55.5L111.937 55.5L118.138 55.5L119.307 55.5L118.499 56.3453C113.119 61.9788 108.822 67.7313 105.603 73.602C102.436 79.4294 100.894 84.1093 100.894 87.6714C100.894 88.3689 101.087 88.8731 101.427 89.2382C101.775 89.6107 102.329 89.8939 103.153 90.0411L103.163 90.0429L103.174 90.0452C103.744 90.1719 104.184 90.2662 104.497 90.3288L111.716 55.5ZM111.716 55.5L111.567 55.6635C105.119 62.7502 100.129 69.8473 96.6072 76.9559C93.0869 84.0606 91.3085 90.5608 91.3084 96.4479C91.3084 101.186 92.609 105.094 95.247 108.128L95.2469 108.128L95.2547 108.137C97.9623 111.108 101.438 112.593 105.641 112.593C108.863 112.593 111.536 111.636 113.614 109.691C115.698 107.742 116.73 105.187 116.73 102.076C116.73 98.9066 115.701 96.3197 113.617 94.3684L111.716 55.5ZM79.9377 55.5L79.7166 55.5L79.5678 55.6637C73.1829 62.6871 68.2254 69.7523 64.7033 76.8605L64.7018 76.8638C61.2451 83.969 59.5 90.4998 59.5 96.4478C59.5 101.244 60.7657 105.154 63.3426 108.127L63.3426 108.127L63.3467 108.132C65.9921 111.108 69.4387 112.593 73.6416 112.593C76.8637 112.593 79.5364 111.636 81.6148 109.691C83.6988 107.742 84.7305 105.187 84.7305 102.076C84.7305 98.9102 83.7365 96.3242 81.7162 94.3712C79.7117 92.4336 76.6807 91.1017 72.6889 90.3289C72.6883 90.3288 72.6878 90.3287 72.6873 90.3286L72.0941 90.21L71.2594 90.043L71.2594 90.0428L71.2463 90.0406C70.387 89.8924 69.8085 89.6069 69.4459 89.2318C69.0924 88.8661 68.8948 88.3641 68.8948 87.6714C68.8948 84.1092 70.4364 79.4292 73.6035 73.6016C76.8229 67.7311 81.1199 61.9787 86.5001 56.3453L87.3074 55.5L86.1385 55.5L79.9377 55.5Z" stroke="black"/>
</g>
<defs>
<filter id="filter0_d" x="4.42285" y="1" width="176.138" height="174.093" filterUnits="userSpaceOnUse" color-interpolation-filters="sRGB">
<feFlood flood-opacity="0" result="BackgroundImageFix"/>
<feColorMatrix in="SourceAlpha" type="matrix" values="0 0 0 0 0 0 0 0 0 0 0 0 0 0 0 0 0 0 127 0"/>
<feOffset dy="4"/>
<feGaussianBlur stdDeviation="29.5"/>
<feColorMatrix type="matrix" values="0 0 0 0 0 0 0 0 0 0 0 0 0 0 0 0 0 0 0.09 0"/>
<feBlend mode="normal" in2="BackgroundImageFix" result="effect1_dropShadow"/>
<feBlend mode="normal" in="SourceGraphic" in2="effect1_dropShadow" result="shape"/>
</filter>
<filter id="filter1_d" x="0" y="0" width="179.476" height="176.093" filterUnits="userSpaceOnUse" color-interpolation-filters="sRGB">
<feFlood flood-opacity="0" result="BackgroundImageFix"/>
<feColorMatrix in="SourceAlpha" type="matrix" values="0 0 0 0 0 0 0 0 0 0 0 0 0 0 0 0 0 0 127 0"/>
<feOffset dy="4"/>
<feGaussianBlur stdDeviation="29.5"/>
<feColorMatrix type="matrix" values="0 0 0 0 0 0 0 0 0 0 0 0 0 0 0 0 0 0 0.09 0"/>
<feBlend mode="normal" in2="BackgroundImageFix" result="effect1_dropShadow"/>
<feBlend mode="normal" in="SourceGraphic" in2="effect1_dropShadow" result="shape"/>
</filter>
</defs>
</svg>
