<svg width="1127" height="554" viewBox="0 0 1127 554" fill="none" xmlns="http://www.w3.org/2000/svg">
<path d="M1124.5 2.5H1126.5V0.5H1124.5V2.5ZM1124.5 263.5V265.5H1126.5V263.5H1124.5ZM151.5 263.5V261.5H149.5V263.5H151.5ZM151.5 553.5L163.047 533.5H139.953L151.5 553.5ZM0.5 4.5H407.5V0.5H0.5V4.5ZM407.5 4.5H807V0.5H407.5V4.5ZM807 4.5H1124.5V0.5H807V4.5ZM1122.5 2.5V263.5H1126.5V2.5H1122.5ZM1124.5 261.5H407.5V265.5H1124.5V261.5ZM407.5 261.5H151.5V265.5H407.5V261.5ZM149.5 263.5V535.5H153.5V263.5H149.5Z" fill="url(#paint0_linear)"/>
<defs>
<linearGradient id="paint0_linear" x1="0.5" y1="2.5" x2="436.049" y2="890.988" gradientUnits="userSpaceOnUse">
<stop stop-color="#3DC172"/>
<stop offset="1" stop-color="#5E9C1F"/>
</linearGradient>
</defs>
</svg>
