<svg width="23" height="916" viewBox="0 0 23 916" fill="none" xmlns="http://www.w3.org/2000/svg">
<path d="M8 1V0H7V1H8ZM7.29289 915.707C7.68342 916.098 8.31658 916.098 8.70711 915.707L15.0711 909.343C15.4616 908.953 15.4616 908.319 15.0711 907.929C14.6805 907.538 14.0474 907.538 13.6569 907.929L8 913.586L2.34315 907.929C1.95262 907.538 1.31946 907.538 0.928932 907.929C0.538408 908.319 0.538408 908.953 0.928932 909.343L7.29289 915.707ZM23 0H8V2H23V0ZM7 1V915H9V1H7Z" fill="url(#paint0_linear)"/>
<defs>
<linearGradient id="paint0_linear" x1="8" y1="1" x2="37.9919" y2="1.49221" gradientUnits="userSpaceOnUse">
<stop stop-color="#FAFF00"/>
<stop offset="1" stop-color="#7FC13D"/>
</linearGradient>
</defs>
</svg>
